<svg id="Calque_2" data-name="Calque 2" xmlns="http://www.w3.org/2000/svg" xmlns:xlink="http://www.w3.org/1999/xlink" viewBox="0 0 1280 768"><defs><style>.cls-1,.cls-10,.cls-11{fill:#a8a19b;}.cls-1{opacity:0.14;}.cls-2{font-size:24px;}.cls-12,.cls-2,.cls-5,.cls-6{font-family:CrimsonText-Regular, Crimson Text;}.cls-3{fill:none;stroke:#a8a19b;stroke-width:4px;}.cls-3,.cls-4{stroke-miterlimit:10;}.cls-10,.cls-4,.cls-9{opacity:0.75;}.cls-4{font-size:28.9px;fill:#1d1d1b;stroke:#9e8033;font-family:Satisfy-Regular, Satisfy;}.cls-12,.cls-5{font-size:36px;}.cls-6{font-size:18px;}.cls-7{font-family:CrimsonText-Italic, Crimson Text;font-style:italic;}.cls-8{letter-spacing:-0.03em;}.cls-9{fill:#bf9c4c;}.cls-11,.cls-12{opacity:0.5;}</style></defs><title>Plan de travail 4</title><rect class="cls-1" width="1280" height="64.16"/><text class="cls-2" transform="translate(27.54 39.77)"><tspan xml:space="preserve">Tuile graphique       25/09/2017</tspan></text><text class="cls-2" transform="translate(825.54 39.77)">Nom de l’auteur : Philipe LECHARPENTIER</text><path class="cls-3" d="M180.83,143.12a23.81,23.81,0,0,0-2.11,10.21l-.89-2.55-1.58-4.55a152.66,152.66,0,0,0-38.68,24c-17.24,14.53-43.06,42.39-39,51.92,4.24,10,41.05-1.53,67.87-18.64,18.09-11.54,31.09-19.84,43.6-37.72,9.8-14,15.79-28.87,31.3-36.39,10.33-5,18.31-3.57,18.29-4.44-.07-2.1-46.14,4.85-60.13,7.1C194.13,132.88,185,134.51,180.83,143.12Z"/><path class="cls-3" d="M109.79,212.79c69.41-42.75,94.72-60.32,100.92-66.56a83.67,83.67,0,0,1,7.38-6.66,77.15,77.15,0,0,1,17.58-10.65"/><text class="cls-4" transform="translate(166.86 226.96) scale(0.79 1)"><tspan xml:space="preserve"> Sciences-Fiction</tspan></text><text class="cls-5" transform="translate(347.1 142.25)">Livres Siences-Fiction : Toute l’actualité de la SF</text><image width="160" height="264" transform="translate(963 372) scale(0.76)" xlink:href="../Desktop/mon dossier/ Web design/1984.jpg"/><image width="160" height="262" transform="translate(579 373) scale(0.76)" xlink:href="../Desktop/mon dossier/ Web design/Dune_Le_Cycle_de_Dune_tome_1.jpg"/><image width="160" height="265" transform="translate(196 373) scale(0.75)" xlink:href="../Desktop/mon dossier/ Web design/Fondation_Le_Cycle_de_Fondation_tome_1.png"/><text class="cls-6" transform="translate(1098.8 403.05)">1984<tspan x="0" y="27">Nineteen </tspan><tspan x="0" y="54">Eighty-Four</tspan></text><text class="cls-6" transform="translate(723.8 402.05)">Dune - Le Cycle <tspan x="0" y="27">de Dune, tome 1 </tspan><tspan x="0" y="54">(1965)</tspan><tspan class="cls-7"><tspan x="0" y="81">F</tspan><tspan class="cls-8" x="8.84" y="81">r</tspan><tspan x="14.85" y="81">ank Herbert</tspan></tspan></text><text class="cls-6" transform="translate(328.8 402.05)">Fondation - Le <tspan x="0" y="27">Cycle de Fondation, </tspan><tspan x="0" y="54">tome 1 (1951)</tspan><tspan class="cls-7"><tspan x="0" y="81">Isaac Asimov</tspan></tspan></text><rect class="cls-9" x="1174" y="151" width="40" height="40"/><rect class="cls-10" x="1174" y="222" width="40" height="40"/><rect class="cls-11" x="1174" y="289" width="40" height="40"/><rect class="cls-9" x="77.69" y="637" width="40" height="40" transform="translate(192.42 1314.43) rotate(-179.74)"/><rect class="cls-10" x="78.01" y="566" width="40" height="40" transform="translate(193.38 1172.43) rotate(-179.74)"/><rect class="cls-11" x="78.31" y="499" width="40" height="40" transform="translate(194.29 1038.44) rotate(-179.74)"/><text class="cls-12" transform="translate(575.7 210.4)">Livres &amp; romans</text><rect class="cls-9" x="498" y="613" width="294" height="44"/><text class="cls-2" transform="translate(582 641)">Tous les livres</text></svg>