<svg id="Calque_2" data-name="Calque 2" xmlns="http://www.w3.org/2000/svg" xmlns:xlink="http://www.w3.org/1999/xlink" viewBox="0 0 1280 768"><defs><style>.cls-1,.cls-304,.cls-6{fill:#a8a19b;}.cls-1{opacity:0.14;}.cls-10,.cls-2{font-size:24px;}.cls-11,.cls-16,.cls-2,.cls-3,.cls-5,.cls-9{font-family:CrimsonText-Regular, Crimson Text;}.cls-3,.cls-5{font-size:21px;}.cls-4{fill:#bf9c4c;}.cls-305,.cls-5{fill:#fff;}.cls-195,.cls-7{fill:#9e8033;}.cls-7{opacity:0.75;}.cls-8{opacity:0.1;fill:url(#Dégradé_sans_nom_4);}.cls-9{font-size:36px;}.cls-11,.cls-12{font-size:14px;}.cls-12{font-family:CrimsonText-Italic, Crimson Text;font-style:italic;}.cls-13{letter-spacing:-0.06em;}.cls-14{letter-spacing:-0.03em;}.cls-15{letter-spacing:-0.03em;}.cls-16{font-size:18px;}.cls-17{letter-spacing:-0.01em;}.cls-18{letter-spacing:0em;}.cls-19{letter-spacing:-0.01em;}.cls-20{letter-spacing:0.02em;}.cls-21{letter-spacing:-0.02em;}.cls-22{letter-spacing:-0.02em;}.cls-23{letter-spacing:0em;}.cls-24{letter-spacing:-0.01em;}.cls-25{letter-spacing:-0.05em;}.cls-26{letter-spacing:-0.01em;}.cls-27{letter-spacing:-0.01em;}.cls-28{letter-spacing:-0.01em;}.cls-29{letter-spacing:-0.03em;}.cls-30{letter-spacing:-0.01em;}.cls-31{letter-spacing:0.02em;}.cls-32{letter-spacing:-0.01em;}.cls-33{letter-spacing:0.01em;}.cls-34{letter-spacing:0em;}.cls-35{letter-spacing:0.01em;}.cls-36{letter-spacing:-0.03em;}.cls-37{letter-spacing:0.02em;}.cls-38{letter-spacing:0.04em;}.cls-39{letter-spacing:0.01em;}.cls-40{letter-spacing:0.01em;}.cls-41{letter-spacing:-0.01em;}.cls-42{letter-spacing:-0.01em;}.cls-43{letter-spacing:-0.02em;}.cls-44{letter-spacing:0.01em;}.cls-45{letter-spacing:0em;}.cls-46{letter-spacing:0.01em;}.cls-47{letter-spacing:0.02em;}.cls-48{letter-spacing:0em;}.cls-49{letter-spacing:0.02em;}.cls-50{letter-spacing:0em;}.cls-51{letter-spacing:0.02em;}.cls-52{letter-spacing:0em;}.cls-53{letter-spacing:0em;}.cls-54{letter-spacing:-0.02em;}.cls-55{letter-spacing:-0.01em;}.cls-56{letter-spacing:0em;}.cls-57{letter-spacing:0em;}.cls-58{letter-spacing:-0.01em;}.cls-59{letter-spacing:-0.01em;}.cls-60{letter-spacing:-0.08em;}.cls-61{letter-spacing:-0.01em;}.cls-62{letter-spacing:0em;}.cls-63{letter-spacing:0.01em;}.cls-64{letter-spacing:-0.02em;}.cls-65{letter-spacing:-0.02em;}.cls-66{letter-spacing:0.02em;}.cls-67{letter-spacing:-0.01em;}.cls-68{letter-spacing:0em;}.cls-69{letter-spacing:0.01em;}.cls-70{letter-spacing:0.02em;}.cls-71{letter-spacing:0.01em;}.cls-72{letter-spacing:-0.01em;}.cls-73{letter-spacing:0.02em;}.cls-74{letter-spacing:-0.01em;}.cls-75{letter-spacing:-0.02em;}.cls-76{letter-spacing:0em;}.cls-77{letter-spacing:0.03em;}.cls-78{letter-spacing:-0.02em;}.cls-79{letter-spacing:0.03em;}.cls-80{letter-spacing:0em;}.cls-81{letter-spacing:0em;}.cls-82{letter-spacing:0.05em;}.cls-83{letter-spacing:-0.05em;}.cls-84{letter-spacing:0em;}.cls-85{letter-spacing:0.02em;}.cls-86{letter-spacing:0em;}.cls-87{letter-spacing:0em;}.cls-88{letter-spacing:-0.01em;}.cls-89{letter-spacing:0.02em;}.cls-90{letter-spacing:0em;}.cls-91{letter-spacing:0em;}.cls-92{letter-spacing:0.02em;}.cls-93{letter-spacing:-0.01em;}.cls-94{letter-spacing:-0.01em;}.cls-95{letter-spacing:-0.01em;}.cls-96{letter-spacing:-0.01em;}.cls-97{letter-spacing:-0.01em;}.cls-98{letter-spacing:0.01em;}.cls-99{letter-spacing:-0.01em;}.cls-100{letter-spacing:0em;}.cls-101{letter-spacing:0.02em;}.cls-102{letter-spacing:-0.01em;}.cls-103{letter-spacing:0.02em;}.cls-104{letter-spacing:0.01em;}.cls-105{letter-spacing:0.01em;}.cls-106{letter-spacing:0em;}.cls-107{letter-spacing:-0.02em;}.cls-108{letter-spacing:-0.01em;}.cls-109{letter-spacing:-0.01em;}.cls-110{letter-spacing:0em;}.cls-111{letter-spacing:0.01em;}.cls-112{letter-spacing:0em;}.cls-113{letter-spacing:-0.01em;}.cls-114{letter-spacing:0.01em;}.cls-115{letter-spacing:-0.02em;}.cls-116{letter-spacing:-0.01em;}.cls-117{letter-spacing:-0.02em;}.cls-118{letter-spacing:0.01em;}.cls-119{letter-spacing:0.01em;}.cls-120{letter-spacing:-0.03em;}.cls-121{letter-spacing:-0.05em;}.cls-122{letter-spacing:0.01em;}.cls-123{letter-spacing:0.01em;}.cls-124{letter-spacing:-0.01em;}.cls-125{letter-spacing:-0.01em;}.cls-126{letter-spacing:0.02em;}.cls-127{letter-spacing:-0.01em;}.cls-128{letter-spacing:0em;}.cls-129{letter-spacing:-0.01em;}.cls-130{letter-spacing:-0.02em;}.cls-131{letter-spacing:-0.01em;}.cls-132{letter-spacing:-0.01em;}.cls-133{letter-spacing:0em;}.cls-134{letter-spacing:0em;}.cls-135{letter-spacing:0.01em;}.cls-136{letter-spacing:-0.02em;}.cls-137{letter-spacing:-0.02em;}.cls-138{letter-spacing:0em;}.cls-139{letter-spacing:-0.01em;}.cls-140{letter-spacing:-0.01em;}.cls-141{letter-spacing:0.01em;}.cls-142{letter-spacing:-0.01em;}.cls-143{letter-spacing:0.01em;}.cls-144{letter-spacing:-0.01em;}.cls-145{letter-spacing:0.01em;}.cls-146{letter-spacing:0.02em;}.cls-147{letter-spacing:0.02em;}.cls-148{letter-spacing:-0.02em;}.cls-149{letter-spacing:-0.02em;}.cls-150{letter-spacing:-0.01em;}.cls-151{letter-spacing:0em;}.cls-152{letter-spacing:0em;}.cls-153{letter-spacing:0.01em;}.cls-154{letter-spacing:0em;}.cls-155{letter-spacing:0em;}.cls-156{letter-spacing:0em;}.cls-157{letter-spacing:-0.01em;}.cls-158{letter-spacing:0em;}.cls-159{letter-spacing:0.01em;}.cls-160{letter-spacing:0.01em;}.cls-161{letter-spacing:0em;}.cls-162{letter-spacing:0.03em;}.cls-163{letter-spacing:0.04em;}.cls-164{letter-spacing:0.01em;}.cls-165{letter-spacing:-0.03em;}.cls-166{letter-spacing:-0.01em;}.cls-167{letter-spacing:0.01em;}.cls-168{letter-spacing:0.04em;}.cls-169{letter-spacing:-0.02em;}.cls-170{letter-spacing:-0.01em;}.cls-171{letter-spacing:0em;}.cls-172{letter-spacing:0em;}.cls-173{letter-spacing:-0.02em;}.cls-174{letter-spacing:-0.01em;}.cls-175{letter-spacing:-0.02em;}.cls-176{letter-spacing:-0.01em;}.cls-177{letter-spacing:0.02em;}.cls-178{letter-spacing:-0.01em;}.cls-179{letter-spacing:-0.02em;}.cls-180{letter-spacing:0.01em;}.cls-181{letter-spacing:0.02em;}.cls-182{letter-spacing:0.02em;}.cls-183{letter-spacing:0.02em;}.cls-184{letter-spacing:0em;}.cls-185{letter-spacing:-0.02em;}.cls-186{letter-spacing:0.01em;}.cls-187{letter-spacing:-0.02em;}.cls-188{letter-spacing:0.02em;}.cls-189{letter-spacing:0.01em;}.cls-190{letter-spacing:-0.01em;}.cls-191{letter-spacing:-0.01em;}.cls-192{letter-spacing:-0.02em;}.cls-193{letter-spacing:0.01em;}.cls-194{letter-spacing:-0.01em;}.cls-195{opacity:0.66;}.cls-196{letter-spacing:-0.03em;}.cls-197{letter-spacing:-0.04em;}.cls-198{letter-spacing:-0.01em;}.cls-199{letter-spacing:0.01em;}.cls-200{letter-spacing:-0.01em;}.cls-201{letter-spacing:0em;}.cls-202{letter-spacing:-0.01em;}.cls-203{letter-spacing:-0.07em;}.cls-204{letter-spacing:0.01em;}.cls-205{letter-spacing:0.01em;}.cls-206{letter-spacing:0em;}.cls-207{letter-spacing:0.01em;}.cls-208{letter-spacing:-0.01em;}.cls-209{letter-spacing:-0.01em;}.cls-210{letter-spacing:0em;}.cls-211{letter-spacing:-0.04em;}.cls-212{letter-spacing:-0.02em;}.cls-213{letter-spacing:-0.02em;}.cls-214{letter-spacing:0.01em;}.cls-215{letter-spacing:-0.05em;}.cls-216{letter-spacing:-0.04em;}.cls-217{letter-spacing:0em;}.cls-218{letter-spacing:0em;}.cls-219{letter-spacing:-0.05em;}.cls-220{letter-spacing:-0.05em;}.cls-221{letter-spacing:0.01em;}.cls-222{letter-spacing:-0.01em;}.cls-223{letter-spacing:-0.02em;}.cls-224{letter-spacing:0em;}.cls-225{letter-spacing:-0.01em;}.cls-226{letter-spacing:0em;}.cls-227{letter-spacing:-0.02em;}.cls-228{letter-spacing:0.01em;}.cls-229{letter-spacing:0.01em;}.cls-230{letter-spacing:0em;}.cls-231{letter-spacing:-0.05em;}.cls-232{letter-spacing:0.01em;}.cls-233{letter-spacing:-0.01em;}.cls-234{letter-spacing:0.02em;}.cls-235{letter-spacing:0em;}.cls-236{letter-spacing:0.02em;}.cls-237{letter-spacing:0em;}.cls-238{letter-spacing:-0.02em;}.cls-239{letter-spacing:-0.01em;}.cls-240{letter-spacing:-0.01em;}.cls-241{letter-spacing:0.01em;}.cls-242{letter-spacing:-0.03em;}.cls-243{letter-spacing:0em;}.cls-244{letter-spacing:-0.02em;}.cls-245{letter-spacing:-0.04em;}.cls-246{letter-spacing:0em;}.cls-247{letter-spacing:0.01em;}.cls-248{letter-spacing:-0.01em;}.cls-249{letter-spacing:0em;}.cls-250{letter-spacing:-0.02em;}.cls-251{letter-spacing:-0.02em;}.cls-252{letter-spacing:0.02em;}.cls-253{letter-spacing:-0.01em;}.cls-254{letter-spacing:0em;}.cls-255{letter-spacing:-0.02em;}.cls-256{letter-spacing:0.01em;}.cls-257{letter-spacing:-0.01em;}.cls-258{letter-spacing:0.01em;}.cls-259{letter-spacing:-0.01em;}.cls-260{letter-spacing:0em;}.cls-261{letter-spacing:0.01em;}.cls-262{letter-spacing:-0.01em;}.cls-263{letter-spacing:0em;}.cls-264{letter-spacing:-0.02em;}.cls-265{letter-spacing:0.04em;}.cls-266{letter-spacing:-0.01em;}.cls-267{letter-spacing:0.02em;}.cls-268{letter-spacing:0.02em;}.cls-269{letter-spacing:-0.01em;}.cls-270{letter-spacing:-0.01em;}.cls-271{letter-spacing:-0.02em;}.cls-272{letter-spacing:-0.01em;}.cls-273{letter-spacing:0.01em;}.cls-274{letter-spacing:-0.01em;}.cls-275{letter-spacing:-0.02em;}.cls-276{letter-spacing:0.02em;}.cls-277{letter-spacing:-0.02em;}.cls-278{letter-spacing:0em;}.cls-279{letter-spacing:-0.02em;}.cls-280{letter-spacing:0.02em;}.cls-281{letter-spacing:0.01em;}.cls-282{letter-spacing:-0.01em;}.cls-283{letter-spacing:0.02em;}.cls-284{letter-spacing:-0.01em;}.cls-285{letter-spacing:0.02em;}.cls-286{letter-spacing:0.02em;}.cls-287{letter-spacing:-0.01em;}.cls-288{letter-spacing:-0.02em;}.cls-289{letter-spacing:0.02em;}.cls-290{letter-spacing:0em;}.cls-291{letter-spacing:-0.03em;}.cls-292{letter-spacing:0.01em;}.cls-293{letter-spacing:-0.01em;}.cls-294{letter-spacing:0.02em;}.cls-295{letter-spacing:0.02em;}.cls-296{letter-spacing:-0.01em;}.cls-297{letter-spacing:-0.05em;}.cls-298{letter-spacing:-0.01em;}.cls-299{letter-spacing:0.03em;}.cls-300{letter-spacing:-0.04em;}.cls-301{letter-spacing:-0.05em;}.cls-302{letter-spacing:-0.05em;}.cls-303{letter-spacing:-0.06em;}.cls-304{opacity:0.5;}</style><linearGradient id="Dégradé_sans_nom_4" x1="624.84" y1="380.6" x2="430.16" y2="43.4" gradientUnits="userSpaceOnUse"><stop offset="0" stop-color="#fff"/><stop offset="1"/></linearGradient></defs><title>Plan de travail 3</title><rect class="cls-1" width="1280" height="64.16"/><text class="cls-2" transform="translate(27.54 39.77)"><tspan xml:space="preserve">Tuile graphique       25/09/2017</tspan></text><text class="cls-2" transform="translate(825.54 39.77)">Nom de l’auteur : Philipe LECHARPENTIER</text><text class="cls-3" transform="translate(919.91 597)">Lorem ipsum</text><rect class="cls-4" x="899" y="569" width="302" height="60"/><rect class="cls-4" x="898.74" y="640" width="140.52" height="45.49"/><text class="cls-3" transform="translate(936.46 668.39)">Acheter</text><text class="cls-5" transform="translate(982.84 522.23)">Feulletez le livre</text><rect class="cls-6" x="1110" y="106" width="88" height="88"/><rect class="cls-7" x="1006" y="106" width="88" height="88"/><rect class="cls-8" x="320" y="107" width="415" height="210"/><text class="cls-9" transform="translate(344 183.4)">M<tspan class="cls-10" x="31.99" y="0">ES</tspan><tspan x="56.88" y="0" xml:space="preserve"> V</tspan><tspan class="cls-10" x="89.86" y="0">RAIS</tspan><tspan x="140.32" y="0" xml:space="preserve"> ENFANTS</tspan></text><text class="cls-11" transform="translate(344 221.49)">UNE FEMME<tspan x="0" y="21">DEUX VIES</tspan><tspan x="0" y="42">DEUX UNIVERS</tspan></text><text class="cls-2" transform="translate(510.91 139)">JO WALTON</text><text class="cls-12"><tspan class="cls-13" x="344" y="295">T</tspan><tspan class="cls-14" x="351.4" y="295">r</tspan><tspan x="356.07" y="295">ad. de l&apos;anglais par Florence Do</tspan><tspan class="cls-15" x="513.08" y="295">l</tspan><tspan x="516.12" y="295">isi</tspan></text><text class="cls-16" transform="translate(128 348.2)"><tspan class="cls-17">R</tspan><tspan class="cls-18" x="11.4" y="0">é</tspan><tspan class="cls-19" x="19.01" y="0">s</tspan><tspan class="cls-20" x="25.2" y="0">u</tspan><tspan class="cls-21" x="34.57" y="0">m</tspan><tspan x="48.3" y="0">é</tspan><tspan class="cls-22" x="0" y="41">N</tspan><tspan class="cls-23" x="12.35" y="41">é</tspan><tspan x="19.99" y="41">e </tspan><tspan class="cls-24" x="31.57" y="41">e</tspan><tspan x="39.01" y="41">n </tspan><tspan class="cls-25" x="52.58" y="41">1</tspan><tspan class="cls-26" x="60.1" y="41">9</tspan><tspan class="cls-27" x="68.35" y="41">2</tspan><tspan class="cls-28" x="76.77" y="41">6</tspan><tspan x="85.03" y="41">, </tspan><tspan class="cls-29" x="93.26" y="41">P</tspan><tspan class="cls-30" x="102.39" y="41">a</tspan><tspan class="cls-31" x="109.65" y="41">tr</tspan><tspan class="cls-32" x="122.41" y="41">i</tspan><tspan class="cls-33" x="126.93" y="41">c</tspan><tspan class="cls-34" x="134.21" y="41">i</tspan><tspan x="138.99" y="41">a </tspan><tspan class="cls-35" x="150.46" y="41">C</tspan><tspan class="cls-36" x="162.15" y="41">o</tspan><tspan class="cls-27" x="170.63" y="41">w</tspan><tspan class="cls-37" x="183.44" y="41">a</tspan><tspan x="191.2" y="41">n </tspan><tspan class="cls-38" x="204.77" y="41">f</tspan><tspan class="cls-39" x="210.71" y="41">i</tspan><tspan class="cls-40" x="215.68" y="41">n</tspan><tspan class="cls-41" x="225.38" y="41">i</tspan><tspan x="229.88" y="41">t s</tspan><tspan class="cls-18" x="245.73" y="41">e</tspan><tspan x="253.34" y="41">s </tspan><tspan class="cls-42" x="263.68" y="41">j</tspan><tspan class="cls-43" x="267.69" y="41">o</tspan><tspan class="cls-44" x="276.26" y="41">u</tspan><tspan class="cls-45" x="285.58" y="41">r</tspan><tspan x="292.33" y="41">s </tspan><tspan class="cls-46" x="302.67" y="41">d</tspan><tspan class="cls-47" x="311.57" y="41">a</tspan><tspan class="cls-48" x="319.33" y="41">n</tspan><tspan x="328.86" y="41">s </tspan><tspan class="cls-49" x="339.19" y="41">u</tspan><tspan class="cls-22" x="348.55" y="41">n</tspan><tspan x="357.77" y="41">e </tspan><tspan class="cls-50" x="369.36" y="41">m</tspan><tspan class="cls-51" x="383.39" y="41">a</tspan><tspan class="cls-52" x="391.12" y="41">i</tspan><tspan class="cls-53" x="395.91" y="41">s</tspan><tspan class="cls-54" x="402.2" y="41">o</tspan><tspan x="410.88" y="41">n </tspan><tspan class="cls-55" x="424.45" y="41">d</tspan><tspan x="433.07" y="41">e </tspan><tspan class="cls-24" x="444.66" y="41">r</tspan><tspan class="cls-56" x="451.21" y="41">e</tspan><tspan class="cls-31" x="458.8" y="41">t</tspan><tspan class="cls-57" x="464.6" y="41">r</tspan><tspan class="cls-51" x="471.3" y="41">a</tspan><tspan class="cls-41" x="479.03" y="41">i</tspan><tspan class="cls-58" x="483.52" y="41">t</tspan><tspan class="cls-59" x="488.84" y="41">e</tspan><tspan x="496.27" y="41">. </tspan><tspan class="cls-60" x="504.39" y="41">T</tspan><tspan class="cls-61" x="514.66" y="41">r</tspan><tspan class="cls-62" x="521.21" y="41">è</tspan><tspan x="528.82" y="41">s </tspan><tspan class="cls-63" x="539.16" y="41">â</tspan><tspan class="cls-64" x="546.71" y="41">g</tspan><tspan class="cls-23" x="554.76" y="41">é</tspan><tspan class="cls-65" x="562.39" y="41">e</tspan><tspan x="569.55" y="41">, </tspan><tspan class="cls-66" x="577.78" y="41">t</tspan><tspan class="cls-67" x="583.58" y="41">r</tspan><tspan class="cls-18" x="590.13" y="41">è</tspan><tspan x="597.74" y="41">s </tspan><tspan class="cls-68" x="0" y="68">c</tspan><tspan class="cls-54" x="7.07" y="68">o</tspan><tspan class="cls-69" x="15.75" y="68">n</tspan><tspan class="cls-70" x="25.51" y="68">f</tspan><tspan class="cls-71" x="31.14" y="68">u</tspan><tspan x="40.34" y="68">s</tspan><tspan class="cls-65" x="46.65" y="68">e</tspan><tspan x="53.81" y="68">, </tspan><tspan class="cls-72" x="62.03" y="68">e</tspan><tspan class="cls-73" x="69.5" y="68">l</tspan><tspan class="cls-74" x="74.29" y="68">l</tspan><tspan x="78.51" y="68">e se </tspan><tspan class="cls-53" x="107.98" y="68">s</tspan><tspan class="cls-75" x="114.28" y="68">o</tspan><tspan class="cls-76" x="122.85" y="68">u</tspan><tspan class="cls-77" x="131.93" y="68">v</tspan><tspan class="cls-32" x="141.08" y="68">i</tspan><tspan class="cls-61" x="145.6" y="68">e</tspan><tspan class="cls-78" x="153.03" y="68">n</tspan><tspan x="162.2" y="68">t </tspan><tspan class="cls-55" x="171.74" y="68">d</tspan><tspan x="180.36" y="68">e s</tspan><tspan class="cls-62" x="198.26" y="68">e</tspan><tspan x="205.87" y="68">s </tspan><tspan class="cls-55" x="216.2" y="68">d</tspan><tspan class="cls-61" x="224.82" y="68">e</tspan><tspan class="cls-79" x="232.26" y="68">u</tspan><tspan x="241.83" y="68">x </tspan><tspan class="cls-77" x="254.07" y="68">v</tspan><tspan class="cls-32" x="263.22" y="68">i</tspan><tspan class="cls-18" x="267.74" y="68">e</tspan><tspan class="cls-80" x="275.35" y="68">s</tspan><tspan x="281.72" y="68">. </tspan><tspan class="cls-81" x="289.84" y="68">D</tspan><tspan class="cls-47" x="302.48" y="68">a</tspan><tspan class="cls-48" x="310.24" y="68">n</tspan><tspan x="319.77" y="68">s </tspan><tspan class="cls-82" x="330.1" y="68">l</tspan><tspan class="cls-83" x="335.37" y="68">’</tspan><tspan class="cls-49" x="337.34" y="68">u</tspan><tspan class="cls-22" x="346.7" y="68">n</tspan><tspan x="355.92" y="68">e </tspan><tspan class="cls-55" x="367.51" y="68">d</tspan><tspan x="376.13" y="68">e </tspan><tspan class="cls-53" x="387.71" y="68">c</tspan><tspan class="cls-18" x="394.81" y="68">e</tspan><tspan x="402.42" y="68">s </tspan><tspan class="cls-84" x="412.76" y="68">e</tspan><tspan class="cls-85" x="420.31" y="68">x</tspan><tspan class="cls-86" x="428.89" y="68">i</tspan><tspan class="cls-87" x="433.67" y="68">s</tspan><tspan class="cls-58" x="439.97" y="68">t</tspan><tspan class="cls-61" x="445.29" y="68">e</tspan><tspan class="cls-22" x="452.72" y="68">n</tspan><tspan class="cls-53" x="461.94" y="68">c</tspan><tspan class="cls-18" x="469.04" y="68">e</tspan><tspan class="cls-88" x="476.65" y="68">s</tspan><tspan x="482.79" y="68">, </tspan><tspan class="cls-72" x="491.02" y="68">e</tspan><tspan class="cls-89" x="498.48" y="68">l</tspan><tspan class="cls-74" x="503.27" y="68">l</tspan><tspan x="507.49" y="68">e a </tspan><tspan class="cls-84" x="530.53" y="68">é</tspan><tspan class="cls-90" x="538.08" y="68">p</tspan><tspan class="cls-75" x="547.03" y="68">o</tspan><tspan class="cls-71" x="555.6" y="68">u</tspan><tspan x="564.81" y="68">sé </tspan><tspan class="cls-91" x="582.7" y="68">M</tspan><tspan class="cls-92" x="598.68" y="68">a</tspan><tspan class="cls-93" x="606.4" y="68">r</tspan><tspan class="cls-94" x="612.89" y="68">k</tspan><tspan x="621.45" y="68">, </tspan><tspan class="cls-95" x="0" y="95">a</tspan><tspan class="cls-96" x="7.23" y="95">v</tspan><tspan class="cls-23" x="15.72" y="95">e</tspan><tspan x="23.36" y="95">c </tspan><tspan class="cls-97" x="34.5" y="95">q</tspan><tspan class="cls-98" x="42.99" y="95">u</tspan><tspan x="52.32" y="95">i </tspan><tspan class="cls-72" x="61.07" y="95">e</tspan><tspan class="cls-89" x="68.54" y="95">l</tspan><tspan class="cls-74" x="73.33" y="95">l</tspan><tspan x="77.54" y="95">e </tspan><tspan class="cls-99" x="89.13" y="95">a</tspan><tspan class="cls-100" x="96.36" y="95">v</tspan><tspan class="cls-101" x="104.96" y="95">a</tspan><tspan class="cls-41" x="112.69" y="95">i</tspan><tspan x="117.19" y="95">t </tspan><tspan class="cls-102" x="126.73" y="95">p</tspan><tspan class="cls-92" x="135.58" y="95">a</tspan><tspan class="cls-103" x="143.3" y="95">r</tspan><tspan class="cls-104" x="150.39" y="95">t</tspan><tspan class="cls-63" x="156.11" y="95">a</tspan><tspan class="cls-64" x="163.66" y="95">g</tspan><tspan x="171.71" y="95">é </tspan><tspan class="cls-49" x="183.29" y="95">u</tspan><tspan class="cls-22" x="192.65" y="95">n</tspan><tspan x="201.88" y="95">e </tspan><tspan class="cls-105" x="213.46" y="95">l</tspan><tspan class="cls-106" x="218.09" y="95">i</tspan><tspan class="cls-51" x="222.87" y="95">a</tspan><tspan class="cls-86" x="230.6" y="95">i</tspan><tspan class="cls-53" x="235.39" y="95">s</tspan><tspan class="cls-64" x="241.68" y="95">o</tspan><tspan x="250.36" y="95">n </tspan><tspan class="cls-84" x="263.93" y="95">é</tspan><tspan class="cls-107" x="271.48" y="95">p</tspan><tspan class="cls-52" x="280.15" y="95">i</tspan><tspan class="cls-53" x="284.93" y="95">s</tspan><tspan class="cls-108" x="291.22" y="95">t</tspan><tspan class="cls-109" x="296.49" y="95">o</tspan><tspan class="cls-110" x="305.19" y="95">l</tspan><tspan class="cls-51" x="309.66" y="95">a</tspan><tspan class="cls-111" x="317.39" y="95">i</tspan><tspan class="cls-61" x="322.33" y="95">r</tspan><tspan x="328.89" y="95">e </tspan><tspan class="cls-112" x="340.47" y="95">e</tspan><tspan x="348.06" y="95">t </tspan><tspan class="cls-113" x="357.6" y="95">p</tspan><tspan class="cls-80" x="366.32" y="95">l</tspan><tspan class="cls-30" x="370.79" y="95">a</tspan><tspan class="cls-108" x="378.05" y="95">t</tspan><tspan class="cls-54" x="383.32" y="95">o</tspan><tspan class="cls-114" x="392" y="95">n</tspan><tspan class="cls-115" x="401.7" y="95">i</tspan><tspan class="cls-97" x="406.16" y="95">q</tspan><tspan class="cls-116" x="414.64" y="95">u</tspan><tspan class="cls-65" x="423.6" y="95">e</tspan><tspan x="430.76" y="95">, </tspan><tspan class="cls-49" x="438.99" y="95">u</tspan><tspan x="448.35" y="95">n </tspan><tspan class="cls-117" x="461.92" y="95">h</tspan><tspan class="cls-113" x="470.93" y="95">o</tspan><tspan class="cls-118" x="479.62" y="95">m</tspan><tspan class="cls-21" x="493.88" y="95">m</tspan><tspan x="507.61" y="95">e </tspan><tspan class="cls-97" x="519.2" y="95">q</tspan><tspan class="cls-119" x="527.68" y="95">u</tspan><tspan x="537.01" y="95">i </tspan><tspan class="cls-120" x="545.77" y="95">n</tspan><tspan class="cls-121" x="554.85" y="95">’</tspan><tspan x="556.81" y="95">a </tspan><tspan class="cls-102" x="568.27" y="95">p</tspan><tspan class="cls-122" x="577.12" y="95">a</tspan><tspan x="584.75" y="95">s </tspan><tspan class="cls-123" x="595.08" y="95">t</tspan><tspan class="cls-92" x="600.8" y="95">a</tspan><tspan class="cls-124" x="608.52" y="95">r</tspan><tspan class="cls-55" x="614.94" y="95">d</tspan><tspan x="623.56" y="95">é à </tspan><tspan class="cls-21" x="0" y="122">m</tspan><tspan class="cls-54" x="13.73" y="122">o</tspan><tspan class="cls-78" x="22.41" y="122">n</tspan><tspan class="cls-31" x="31.58" y="122">t</tspan><tspan class="cls-61" x="37.38" y="122">r</tspan><tspan class="cls-94" x="43.93" y="122">e</tspan><tspan x="51.33" y="122">r </tspan><tspan class="cls-53" x="62.04" y="122">s</tspan><tspan class="cls-54" x="68.33" y="122">o</tspan><tspan x="77.01" y="122">n </tspan><tspan class="cls-96" x="90.58" y="122">v</tspan><tspan class="cls-125" x="99.07" y="122">é</tspan><tspan class="cls-126" x="106.47" y="122">r</tspan><tspan class="cls-41" x="113.42" y="122">i</tspan><tspan class="cls-104" x="117.92" y="122">t</tspan><tspan class="cls-90" x="123.64" y="122">a</tspan><tspan class="cls-127" x="131.04" y="122">b</tspan><tspan class="cls-74" x="139.55" y="122">l</tspan><tspan x="143.77" y="122">e </tspan><tspan class="cls-77" x="155.35" y="122">v</tspan><tspan class="cls-52" x="164.5" y="122">i</tspan><tspan class="cls-128" x="169.28" y="122">s</tspan><tspan class="cls-63" x="175.62" y="122">a</tspan><tspan class="cls-64" x="183.17" y="122">g</tspan><tspan class="cls-129" x="191.22" y="122">e</tspan><tspan x="198.65" y="122">. </tspan><tspan class="cls-81" x="206.77" y="122">D</tspan><tspan class="cls-47" x="219.41" y="122">a</tspan><tspan class="cls-48" x="227.17" y="122">n</tspan><tspan x="236.7" y="122">s </tspan><tspan class="cls-53" x="247.04" y="122">s</tspan><tspan class="cls-64" x="253.33" y="122">o</tspan><tspan x="262.01" y="122">n </tspan><tspan class="cls-130" x="275.58" y="122">a</tspan><tspan class="cls-131" x="282.61" y="122">u</tspan><tspan class="cls-31" x="291.52" y="122">t</tspan><tspan class="cls-61" x="297.32" y="122">r</tspan><tspan x="303.88" y="122">e </tspan><tspan class="cls-77" x="315.46" y="122">v</tspan><tspan class="cls-32" x="324.61" y="122">i</tspan><tspan class="cls-65" x="329.13" y="122">e</tspan><tspan x="336.29" y="122">, </tspan><tspan class="cls-72" x="344.52" y="122">e</tspan><tspan class="cls-73" x="351.98" y="122">l</tspan><tspan class="cls-132" x="356.77" y="122">l</tspan><tspan x="360.99" y="122">e a </tspan><tspan class="cls-24" x="384.04" y="122">e</tspan><tspan class="cls-22" x="391.47" y="122">n</tspan><tspan class="cls-133" x="400.69" y="122">c</tspan><tspan class="cls-134" x="407.9" y="122">h</tspan><tspan class="cls-47" x="417.22" y="122">a</tspan><tspan class="cls-135" x="424.98" y="122">î</tspan><tspan class="cls-22" x="430.04" y="122">n</tspan><tspan x="439.26" y="122">é </tspan><tspan class="cls-74" x="450.85" y="122">l</tspan><tspan class="cls-62" x="455.06" y="122">e</tspan><tspan x="462.67" y="122">s </tspan><tspan class="cls-19" x="473.01" y="122">su</tspan><tspan class="cls-53" x="488.16" y="122">cc</tspan><tspan class="cls-62" x="502.36" y="122">è</tspan><tspan x="509.97" y="122">s </tspan><tspan class="cls-136" x="520.3" y="122">p</tspan><tspan class="cls-125" x="528.96" y="122">r</tspan><tspan class="cls-137" x="535.49" y="122">o</tspan><tspan class="cls-74" x="544.14" y="122">f</tspan><tspan class="cls-138" x="549.24" y="122">es</tspan><tspan class="cls-139" x="563.21" y="122">s</tspan><tspan class="cls-140" x="569.36" y="122">i</tspan><tspan class="cls-64" x="573.83" y="122">o</tspan><tspan class="cls-141" x="582.51" y="122">n</tspan><tspan class="cls-22" x="592.24" y="122">n</tspan><tspan class="cls-72" x="601.46" y="122">e</tspan><tspan class="cls-80" x="608.93" y="122">l</tspan><tspan class="cls-142" x="613.4" y="122">s</tspan><tspan x="619.54" y="122">, a </tspan><tspan class="cls-61" x="0" y="149">re</tspan><tspan class="cls-22" x="13.99" y="149">n</tspan><tspan class="cls-68" x="23.22" y="149">c</tspan><tspan class="cls-54" x="30.29" y="149">o</tspan><tspan class="cls-78" x="38.97" y="149">n</tspan><tspan class="cls-31" x="48.13" y="149">t</tspan><tspan class="cls-61" x="53.93" y="149">r</tspan><tspan x="60.49" y="149">é </tspan><tspan class="cls-143" x="72.08" y="149">B</tspan><tspan class="cls-128" x="82.59" y="149">é</tspan><tspan class="cls-30" x="90.18" y="149">a</tspan><tspan class="cls-31" x="97.44" y="149">tr</tspan><tspan class="cls-32" x="110.2" y="149">i</tspan><tspan class="cls-53" x="114.72" y="149">c</tspan><tspan x="121.82" y="149">e </tspan><tspan class="cls-112" x="133.41" y="149">e</tspan><tspan x="140.99" y="149">t a </tspan><tspan class="cls-144" x="162" y="149">v</tspan><tspan class="cls-23" x="170.48" y="149">é</tspan><tspan class="cls-145" x="178.12" y="149">c</tspan><tspan x="185.43" y="149">u </tspan><tspan class="cls-117" x="198.54" y="149">h</tspan><tspan class="cls-24" x="207.55" y="149">e</tspan><tspan class="cls-44" x="214.99" y="149">u</tspan><tspan class="cls-61" x="224.31" y="149">re</tspan><tspan class="cls-71" x="238.3" y="149">u</tspan><tspan x="247.51" y="149">se </tspan><tspan class="cls-99" x="265.4" y="149">a</tspan><tspan class="cls-144" x="272.63" y="149">v</tspan><tspan class="cls-23" x="281.12" y="149">e</tspan><tspan x="288.76" y="149">c </tspan><tspan class="cls-87" x="299.9" y="149">c</tspan><tspan class="cls-56" x="307" y="149">e</tspan><tspan class="cls-146" x="314.59" y="149">t</tspan><tspan class="cls-58" x="320.47" y="149">t</tspan><tspan x="325.79" y="149">e </tspan><tspan class="cls-55" x="337.37" y="149">d</tspan><tspan class="cls-94" x="345.99" y="149">e</tspan><tspan class="cls-147" x="353.39" y="149">r</tspan><tspan class="cls-40" x="360.38" y="149">n</tspan><tspan class="cls-32" x="370.08" y="149">i</tspan><tspan class="cls-94" x="374.6" y="149">è</tspan><tspan class="cls-61" x="382" y="149">r</tspan><tspan x="388.56" y="149">e </tspan><tspan class="cls-90" x="400.14" y="149">p</tspan><tspan class="cls-61" x="409.09" y="149">e</tspan><tspan class="cls-21" x="416.53" y="149">n</tspan><tspan class="cls-46" x="425.74" y="149">d</tspan><tspan class="cls-47" x="434.64" y="149">a</tspan><tspan class="cls-148" x="442.4" y="149">n</tspan><tspan x="451.56" y="149">t </tspan><tspan class="cls-109" x="461.11" y="149">p</tspan><tspan class="cls-149" x="469.83" y="149">l</tspan><tspan class="cls-71" x="473.85" y="149">u</tspan><tspan class="cls-139" x="483.05" y="149">s</tspan><tspan class="cls-32" x="489.21" y="149">i</tspan><tspan class="cls-24" x="493.73" y="149">e</tspan><tspan class="cls-44" x="501.17" y="149">u</tspan><tspan class="cls-45" x="510.49" y="149">r</tspan><tspan x="517.24" y="149">s </tspan><tspan class="cls-150" x="527.57" y="149">d</tspan><tspan class="cls-151" x="536.19" y="149">é</tspan><tspan class="cls-152" x="543.83" y="149">c</tspan><tspan class="cls-24" x="550.93" y="149">e</tspan><tspan class="cls-153" x="558.37" y="149">n</tspan><tspan class="cls-40" x="568.1" y="149">n</tspan><tspan class="cls-32" x="577.8" y="149">i</tspan><tspan class="cls-18" x="582.32" y="149">e</tspan><tspan class="cls-80" x="589.93" y="149">s</tspan><tspan x="596.3" y="149">. </tspan><tspan class="cls-81" x="604.42" y="149">D</tspan><tspan class="cls-47" x="617.07" y="149">a</tspan><tspan class="cls-154" x="624.82" y="149">n</tspan><tspan x="634.35" y="149">s </tspan><tspan class="cls-155" x="0" y="176">c</tspan><tspan class="cls-156" x="7.2" y="176">h</tspan><tspan class="cls-157" x="16.53" y="176">a</tspan><tspan class="cls-145" x="23.81" y="176">c</tspan><tspan class="cls-49" x="31.12" y="176">u</tspan><tspan class="cls-22" x="40.48" y="176">n</tspan><tspan x="49.7" y="176">e </tspan><tspan class="cls-55" x="61.29" y="176">d</tspan><tspan x="69.91" y="176">e </tspan><tspan class="cls-53" x="81.49" y="176">c</tspan><tspan class="cls-62" x="88.59" y="176">e</tspan><tspan x="96.2" y="176">s </tspan><tspan class="cls-77" x="106.54" y="176">v</tspan><tspan class="cls-32" x="115.69" y="176">i</tspan><tspan class="cls-18" x="120.21" y="176">e</tspan><tspan class="cls-88" x="127.82" y="176">s</tspan><tspan x="133.95" y="176">, </tspan><tspan class="cls-72" x="142.18" y="176">e</tspan><tspan class="cls-89" x="149.65" y="176">l</tspan><tspan class="cls-74" x="154.44" y="176">l</tspan><tspan x="158.65" y="176">e a </tspan><tspan class="cls-24" x="181.7" y="176">e</tspan><tspan x="189.13" y="176">u </tspan><tspan class="cls-55" x="202.25" y="176">d</tspan><tspan class="cls-62" x="210.87" y="176">e</tspan><tspan x="218.48" y="176">s </tspan><tspan class="cls-61" x="228.81" y="176">e</tspan><tspan class="cls-69" x="236.25" y="176">n</tspan><tspan class="cls-158" x="246.01" y="176">f</tspan><tspan class="cls-47" x="251.23" y="176">a</tspan><tspan class="cls-148" x="258.99" y="176">n</tspan><tspan class="cls-159" x="268.15" y="176">t</tspan><tspan class="cls-80" x="273.85" y="176">s</tspan><tspan x="280.21" y="176">. </tspan><tspan class="cls-48" x="288.33" y="176">E</tspan><tspan class="cls-89" x="298.36" y="176">l</tspan><tspan class="cls-74" x="303.14" y="176">l</tspan><tspan x="307.36" y="176">e </tspan><tspan class="cls-74" x="318.95" y="176">l</tspan><tspan class="cls-62" x="323.16" y="176">e</tspan><tspan x="330.77" y="176">s </tspan><tspan class="cls-51" x="341.11" y="176">a</tspan><tspan class="cls-160" x="348.84" y="176">i</tspan><tspan class="cls-21" x="353.83" y="176">m</tspan><tspan x="367.56" y="176">e </tspan><tspan class="cls-108" x="379.15" y="176">t</tspan><tspan class="cls-75" x="384.42" y="176">o</tspan><tspan class="cls-71" x="392.99" y="176">u</tspan><tspan class="cls-89" x="402.19" y="176">s</tspan><tspan x="408.88" y="176">… </tspan><tspan class="cls-48" x="427.04" y="176">M</tspan><tspan class="cls-51" x="443.02" y="176">a</tspan><tspan class="cls-86" x="450.75" y="176">i</tspan><tspan x="455.53" y="176">s </tspan><tspan class="cls-74" x="465.87" y="176">l</tspan><tspan class="cls-18" x="470.09" y="176">e</tspan><tspan class="cls-161" x="477.69" y="176">s</tspan><tspan class="cls-97" x="484" y="176">q</tspan><tspan class="cls-116" x="492.48" y="176">u</tspan><tspan class="cls-72" x="501.44" y="176">e</tspan><tspan class="cls-110" x="508.91" y="176">l</tspan><tspan x="513.38" y="176">s </tspan><tspan class="cls-87" x="523.71" y="176">s</tspan><tspan class="cls-54" x="530.01" y="176">o</tspan><tspan class="cls-148" x="538.69" y="176">n</tspan><tspan x="547.85" y="176">t s</tspan><tspan class="cls-18" x="563.71" y="176">e</tspan><tspan x="571.32" y="176">s </tspan><tspan class="cls-162" x="581.65" y="176">v</tspan><tspan class="cls-57" x="590.79" y="176">r</tspan><tspan class="cls-101" x="597.49" y="176">a</tspan><tspan class="cls-86" x="605.22" y="176">i</tspan><tspan x="610.01" y="176">s </tspan><tspan class="cls-61" x="0" y="203">e</tspan><tspan class="cls-69" x="7.44" y="203">n</tspan><tspan class="cls-158" x="17.19" y="203">f</tspan><tspan class="cls-47" x="22.42" y="203">a</tspan><tspan class="cls-148" x="30.18" y="203">n</tspan><tspan class="cls-159" x="39.34" y="203">t</tspan><tspan x="45.03" y="203">s : </tspan><tspan class="cls-53" x="63.54" y="203">c</tspan><tspan class="cls-24" x="70.64" y="203">e</tspan><tspan class="cls-79" x="78.08" y="203">u</tspan><tspan x="87.65" y="203">x </tspan><tspan class="cls-55" x="99.89" y="203">d</tspan><tspan x="108.51" y="203">e </tspan><tspan class="cls-82" x="120.09" y="203">l</tspan><tspan class="cls-163" x="125.36" y="203">’</tspan><tspan class="cls-164" x="128.85" y="203">â</tspan><tspan class="cls-54" x="136.4" y="203">g</tspan><tspan x="144.44" y="203">e </tspan><tspan class="cls-165" x="156.03" y="203">n</tspan><tspan class="cls-166" x="164.95" y="203">u</tspan><tspan class="cls-167" x="173.91" y="203">c</tspan><tspan class="cls-74" x="181.14" y="203">l</tspan><tspan class="cls-128" x="185.36" y="203">é</tspan><tspan class="cls-51" x="192.94" y="203">a</tspan><tspan class="cls-111" x="200.68" y="203">i</tspan><tspan class="cls-61" x="205.61" y="203">r</tspan><tspan x="212.17" y="203">e </tspan><tspan class="cls-75" x="223.75" y="203">o</tspan><tspan x="232.33" y="203">u </tspan><tspan class="cls-53" x="245.44" y="203">c</tspan><tspan class="cls-24" x="252.54" y="203">e</tspan><tspan class="cls-79" x="259.98" y="203">u</tspan><tspan x="269.55" y="203">x </tspan><tspan class="cls-55" x="281.79" y="203">d</tspan><tspan x="290.41" y="203">e </tspan><tspan class="cls-82" x="301.99" y="203">l</tspan><tspan class="cls-168" x="307.26" y="203">’</tspan><tspan class="cls-63" x="310.75" y="203">â</tspan><tspan class="cls-54" x="318.29" y="203">g</tspan><tspan x="326.34" y="203">e </tspan><tspan class="cls-169" x="337.93" y="203">d</tspan><tspan x="346.37" y="203">u </tspan><tspan class="cls-136" x="359.48" y="203">p</tspan><tspan class="cls-94" x="368.14" y="203">r</tspan><tspan class="cls-170" x="374.66" y="203">o</tspan><tspan class="cls-171" x="383.49" y="203">g</tspan><tspan class="cls-24" x="391.91" y="203">r</tspan><tspan class="cls-62" x="398.47" y="203">è</tspan><tspan class="cls-166" x="406.08" y="203">s</tspan><tspan x="412.26" y="203">? </tspan><tspan class="cls-172" x="422.72" y="203">C</tspan><tspan class="cls-92" x="434.32" y="203">a</tspan><tspan x="442.04" y="203">r </tspan><tspan class="cls-173" x="452.75" y="203">P</tspan><tspan class="cls-174" x="461.88" y="203">a</tspan><tspan class="cls-31" x="469.14" y="203">tr</tspan><tspan class="cls-32" x="481.9" y="203">i</tspan><tspan class="cls-33" x="486.42" y="203">c</tspan><tspan class="cls-106" x="493.7" y="203">i</tspan><tspan x="498.49" y="203">a </tspan><tspan class="cls-22" x="509.95" y="203">n</tspan><tspan x="519.17" y="203">e se </tspan><tspan class="cls-87" x="548.65" y="203">s</tspan><tspan class="cls-75" x="554.94" y="203">o</tspan><tspan class="cls-76" x="563.51" y="203">u</tspan><tspan class="cls-77" x="572.59" y="203">v</tspan><tspan class="cls-32" x="581.74" y="203">i</tspan><tspan class="cls-67" x="586.26" y="203">e</tspan><tspan class="cls-175" x="593.7" y="203">n</tspan><tspan x="602.86" y="203">t </tspan><tspan class="cls-176" x="612.4" y="203">p</tspan><tspan class="cls-122" x="621.25" y="203">a</tspan><tspan x="628.88" y="203">s </tspan><tspan x="0" y="230">s</tspan><tspan class="cls-61" x="6.31" y="230">e</tspan><tspan class="cls-177" x="13.75" y="230">u</tspan><tspan class="cls-132" x="23.22" y="230">l</tspan><tspan class="cls-178" x="27.44" y="230">e</tspan><tspan class="cls-179" x="34.9" y="230">m</tspan><tspan class="cls-24" x="48.63" y="230">e</tspan><tspan class="cls-148" x="56.06" y="230">n</tspan><tspan x="65.23" y="230">t </tspan><tspan class="cls-55" x="74.77" y="230">d</tspan><tspan x="83.39" y="230">e s</tspan><tspan class="cls-62" x="101.29" y="230">e</tspan><tspan x="108.9" y="230">s </tspan><tspan class="cls-77" x="119.23" y="230">v</tspan><tspan class="cls-32" x="128.38" y="230">i</tspan><tspan class="cls-18" x="132.9" y="230">e</tspan><tspan x="140.51" y="230">s </tspan><tspan class="cls-180" x="150.85" y="230">d</tspan><tspan class="cls-52" x="159.84" y="230">i</tspan><tspan class="cls-53" x="164.62" y="230">s</tspan><tspan class="cls-181" x="170.91" y="230">t</tspan><tspan class="cls-39" x="176.72" y="230">i</tspan><tspan class="cls-22" x="181.7" y="230">n</tspan><tspan class="cls-182" x="190.92" y="230">c</tspan><tspan class="cls-58" x="198.34" y="230">t</tspan><tspan class="cls-62" x="203.66" y="230">e</tspan><tspan class="cls-88" x="211.27" y="230">s</tspan><tspan x="217.4" y="230">, </tspan><tspan class="cls-72" x="225.63" y="230">e</tspan><tspan class="cls-73" x="233.09" y="230">l</tspan><tspan class="cls-74" x="237.88" y="230">l</tspan><tspan x="242.1" y="230">e se </tspan><tspan class="cls-53" x="271.58" y="230">s</tspan><tspan class="cls-75" x="277.87" y="230">o</tspan><tspan class="cls-76" x="286.44" y="230">u</tspan><tspan class="cls-77" x="295.52" y="230">v</tspan><tspan class="cls-32" x="304.67" y="230">i</tspan><tspan class="cls-61" x="309.19" y="230">e</tspan><tspan class="cls-78" x="316.63" y="230">n</tspan><tspan x="325.79" y="230">t </tspan><tspan class="cls-55" x="335.34" y="230">d</tspan><tspan x="343.96" y="230">e </tspan><tspan class="cls-55" x="355.54" y="230">d</tspan><tspan class="cls-61" x="364.16" y="230">e</tspan><tspan class="cls-79" x="371.6" y="230">u</tspan><tspan x="381.17" y="230">x </tspan><tspan class="cls-21" x="393.41" y="230">m</tspan><tspan class="cls-64" x="407.14" y="230">o</tspan><tspan class="cls-179" x="415.82" y="230">n</tspan><tspan class="cls-55" x="425.03" y="230">d</tspan><tspan class="cls-18" x="433.65" y="230">e</tspan><tspan x="441.26" y="230">s </tspan><tspan class="cls-75" x="451.6" y="230">o</tspan><tspan x="460.17" y="230">ù </tspan><tspan class="cls-82" x="473.29" y="230">l</tspan><tspan class="cls-183" x="478.55" y="230">’</tspan><tspan class="cls-184" x="481.72" y="230">H</tspan><tspan class="cls-86" x="494.23" y="230">i</tspan><tspan class="cls-53" x="499.01" y="230">s</tspan><tspan class="cls-108" x="505.31" y="230">t</tspan><tspan class="cls-185" x="510.58" y="230">o</tspan><tspan class="cls-186" x="519.23" y="230">i</tspan><tspan class="cls-24" x="524.17" y="230">r</tspan><tspan x="530.73" y="230">e a </tspan><tspan class="cls-187" x="553.77" y="230">b</tspan><tspan class="cls-188" x="562.18" y="230">i</tspan><tspan class="cls-70" x="567.18" y="230">f</tspan><tspan class="cls-189" x="572.81" y="230">u</tspan><tspan class="cls-124" x="582.13" y="230">r</tspan><tspan class="cls-190" x="588.54" y="230">q</tspan><tspan class="cls-166" x="597.03" y="230">u</tspan><tspan x="605.99" y="230">é </tspan><tspan class="cls-24" x="617.57" y="230">e</tspan><tspan x="625.01" y="230">n </tspan><tspan class="cls-21" x="0" y="266">m</tspan><tspan class="cls-191" x="13.73" y="266">ê</tspan><tspan class="cls-21" x="21.19" y="266">m</tspan><tspan x="34.92" y="266">e </tspan><tspan class="cls-58" x="46.5" y="266">t</tspan><tspan class="cls-191" x="51.82" y="266">e</tspan><tspan class="cls-192" x="59.27" y="266">m</tspan><tspan class="cls-190" x="72.98" y="266">p</tspan><tspan x="81.86" y="266">s </tspan><tspan class="cls-97" x="92.19" y="266">q</tspan><tspan class="cls-166" x="100.68" y="266">u</tspan><tspan x="109.64" y="266">e </tspan><tspan class="cls-53" x="121.22" y="266">s</tspan><tspan class="cls-64" x="127.51" y="266">o</tspan><tspan x="136.19" y="266">n </tspan><tspan class="cls-193" x="149.76" y="266">h</tspan><tspan class="cls-52" x="159.25" y="266">i</tspan><tspan class="cls-53" x="164.04" y="266">s</tspan><tspan class="cls-108" x="170.33" y="266">t</tspan><tspan class="cls-107" x="175.6" y="266">o</tspan><tspan class="cls-111" x="184.25" y="266">i</tspan><tspan class="cls-61" x="189.19" y="266">r</tspan><tspan x="195.75" y="266">e </tspan><tspan class="cls-90" x="207.33" y="266">p</tspan><tspan class="cls-94" x="216.28" y="266">e</tspan><tspan class="cls-45" x="223.68" y="266">r</tspan><tspan class="cls-53" x="230.43" y="266">s</tspan><tspan class="cls-54" x="236.72" y="266">o</tspan><tspan class="cls-153" x="245.4" y="266">n</tspan><tspan class="cls-22" x="255.14" y="266">n</tspan><tspan class="cls-72" x="264.36" y="266">e</tspan><tspan class="cls-73" x="271.82" y="266">l</tspan><tspan class="cls-74" x="276.61" y="266">l</tspan><tspan class="cls-194" x="280.83" y="266">e</tspan><tspan x="288.18" y="266">. </tspan></text><rect class="cls-195" x="901.33" y="220" width="297.12" height="224"/><text class="cls-11" transform="translate(911 238.49)"><tspan class="cls-196">3</tspan><tspan class="cls-197" x="6.25" y="0">5</tspan><tspan x="12.29" y="0">2 </tspan><tspan class="cls-198" x="22.04" y="0">p</tspan><tspan class="cls-199" x="28.94" y="0">a</tspan><tspan class="cls-200" x="34.83" y="0">g</tspan><tspan class="cls-201" x="41.11" y="0">e</tspan><tspan class="cls-202" x="47.04" y="0">s</tspan><tspan x="51.83" y="0">, </tspan><tspan class="cls-203" x="58.23" y="0">1</tspan><tspan class="cls-204" x="63.91" y="0">4</tspan><tspan x="70.65" y="0">0 x </tspan><tspan class="cls-205" x="89.92" y="0">2</tspan><tspan class="cls-206" x="96.63" y="0">0</tspan><tspan x="103.22" y="0">5 </tspan><tspan class="cls-207" x="112.98" y="0">m</tspan><tspan x="124.09" y="0">ma</tspan><tspan class="cls-208" x="0" y="31">I</tspan><tspan class="cls-209" x="4.26" y="31">S</tspan><tspan class="cls-157" x="10.86" y="31">B</tspan><tspan x="18.84" y="31">N : </tspan><tspan class="cls-210" x="38.19" y="31">9</tspan><tspan class="cls-211" x="44.85" y="31">7</tspan><tspan class="cls-212" x="50.96" y="31">8</tspan><tspan class="cls-213" x="57.24" y="31">2</tspan><tspan class="cls-205" x="63.64" y="31">2</tspan><tspan class="cls-214" x="70.36" y="31">0</tspan><tspan class="cls-215" x="77.05" y="31">7</tspan><tspan class="cls-216" x="82.98" y="31">1</tspan><tspan class="cls-217" x="89.02" y="31">3</tspan><tspan class="cls-218" x="95.64" y="31">4</tspan><tspan class="cls-219" x="102.25" y="31">8</tspan><tspan class="cls-220" x="108.19" y="31">1</tspan><tspan x="114.06" y="31">8 / </tspan><tspan class="cls-221" x="132.73" y="31">G</tspan><tspan class="cls-222" x="142.62" y="31">e</tspan><tspan class="cls-223" x="148.43" y="31">n</tspan><tspan class="cls-224" x="155.62" y="31">co</tspan><tspan class="cls-225" x="168.09" y="31">d</tspan><tspan x="174.82" y="31">e : </tspan><tspan class="cls-226" x="190.18" y="31">9</tspan><tspan class="cls-211" x="196.84" y="31">7</tspan><tspan class="cls-227" x="202.96" y="31">8</tspan><tspan class="cls-213" x="209.24" y="31">2</tspan><tspan class="cls-228" x="215.64" y="31">2</tspan><tspan class="cls-229" x="222.35" y="31">0</tspan><tspan class="cls-215" x="229.05" y="31">7</tspan><tspan class="cls-216" x="234.97" y="31">1</tspan><tspan class="cls-217" x="241.02" y="31">3</tspan><tspan class="cls-230" x="247.64" y="31">4</tspan><tspan class="cls-231" x="254.24" y="31">8</tspan><tspan class="cls-220" x="260.19" y="31">1</tspan><tspan x="266.06" y="31">8</tspan><tspan class="cls-232" x="0" y="62">C</tspan><tspan class="cls-87" x="9.11" y="62">o</tspan><tspan class="cls-233" x="16.07" y="62">d</tspan><tspan x="22.8" y="62">e </tspan><tspan class="cls-234" x="31.81" y="62">d</tspan><tspan class="cls-235" x="38.82" y="62">i</tspan><tspan x="42.55" y="62">s</tspan><tspan class="cls-236" x="47.46" y="62">tr</tspan><tspan class="cls-237" x="57.42" y="62">i</tspan><tspan class="cls-238" x="61.04" y="62">b</tspan><tspan class="cls-239" x="67.57" y="62">u</tspan><tspan class="cls-240" x="74.52" y="62">t</tspan><tspan class="cls-222" x="78.67" y="62">e</tspan><tspan class="cls-241" x="84.48" y="62">u</tspan><tspan x="91.74" y="62">r : </tspan><tspan class="cls-242" x="106.43" y="62">B</tspan><tspan class="cls-243" x="114.16" y="62">2</tspan><tspan class="cls-244" x="120.72" y="62">6</tspan><tspan class="cls-245" x="127.08" y="62">7</tspan><tspan class="cls-246" x="133.11" y="62">5</tspan><tspan x="139.72" y="62">4</tspan><tspan class="cls-247" x="0" y="93">C</tspan><tspan class="cls-248" x="9.04" y="93">a</tspan><tspan class="cls-240" x="14.7" y="93">t</tspan><tspan class="cls-249" x="18.86" y="93">é</tspan><tspan class="cls-250" x="24.76" y="93">g</tspan><tspan class="cls-251" x="31" y="93">o</tspan><tspan class="cls-252" x="37.74" y="93">r</tspan><tspan class="cls-253" x="43.17" y="93">i</tspan><tspan x="46.71" y="93">e &gt; </tspan><tspan class="cls-254" x="66.16" y="93">S</tspan><tspan class="cls-255" x="72.94" y="93">o</tspan><tspan class="cls-256" x="79.62" y="93">u</tspan><tspan class="cls-257" x="86.8" y="93">s</tspan><tspan class="cls-172" x="91.63" y="93">-</tspan><tspan class="cls-258" x="96.81" y="93">c</tspan><tspan class="cls-248" x="102.48" y="93">a</tspan><tspan class="cls-240" x="108.14" y="93">t</tspan><tspan class="cls-249" x="112.3" y="93">é</tspan><tspan class="cls-250" x="118.2" y="93">g</tspan><tspan class="cls-251" x="124.44" y="93">o</tspan><tspan class="cls-252" x="131.18" y="93">r</tspan><tspan class="cls-253" x="136.61" y="93">i</tspan><tspan x="140.14" y="93">e : </tspan><tspan class="cls-259" x="155.51" y="93">S</tspan><tspan x="162.09" y="93">F &gt; </tspan><tspan class="cls-260" x="183.2" y="93">S</tspan><tspan class="cls-261" x="189.97" y="93">c</tspan><tspan class="cls-253" x="195.65" y="93">i</tspan><tspan class="cls-262" x="199.19" y="93">e</tspan><tspan class="cls-223" x="204.99" y="93">n</tspan><tspan x="212.18" y="93">c</tspan><tspan class="cls-263" x="217.72" y="93">e</tspan><tspan class="cls-264" x="223.59" y="93">-</tspan><tspan class="cls-265" x="228.37" y="93">f</tspan><tspan class="cls-266" x="233.01" y="93">i</tspan><tspan class="cls-267" x="236.54" y="93">c</tspan><tspan class="cls-268" x="242.33" y="93">t</tspan><tspan class="cls-269" x="246.86" y="93">i</tspan><tspan class="cls-270" x="250.35" y="93">o</tspan><tspan x="257.12" y="93">n</tspan><tspan class="cls-271" x="0" y="124">P</tspan><tspan class="cls-272" x="7.12" y="124">a</tspan><tspan class="cls-273" x="12.74" y="124">y</tspan><tspan x="19.07" y="124">s : </tspan><tspan class="cls-274" x="33.47" y="124">R</tspan><tspan class="cls-275" x="42.32" y="124">o</tspan><tspan x="48.98" y="124">y</tspan><tspan class="cls-238" x="55.19" y="124">a</tspan><tspan class="cls-276" x="60.67" y="124">u</tspan><tspan class="cls-277" x="67.98" y="124">m</tspan><tspan class="cls-278" x="78.68" y="124">e</tspan><tspan class="cls-279" x="84.55" y="124">-</tspan><tspan class="cls-280" x="89.35" y="124">u</tspan><tspan class="cls-281" x="96.65" y="124">n</tspan><tspan x="104.21" y="124">i</tspan><tspan class="cls-232" x="0" y="155">C</tspan><tspan class="cls-282" x="9.11" y="155">o</tspan><tspan class="cls-283" x="15.9" y="155">l</tspan><tspan class="cls-284" x="19.64" y="155">l</tspan><tspan class="cls-214" x="22.94" y="155">e</tspan><tspan class="cls-285" x="28.9" y="155">c</tspan><tspan class="cls-286" x="34.68" y="155">t</tspan><tspan class="cls-287" x="39.21" y="155">i</tspan><tspan class="cls-200" x="42.71" y="155">o</tspan><tspan x="49.48" y="155">n </tspan><tspan class="cls-288" x="60.03" y="155">L</tspan><tspan class="cls-289" x="67.57" y="155">u</tspan><tspan class="cls-223" x="74.86" y="155">n</tspan><tspan class="cls-290" x="82.06" y="155">e</tspan><tspan x="87.99" y="155">s </tspan><tspan class="cls-213" x="96.03" y="155">d</tspan><tspan class="cls-291" x="102.61" y="155">&apos;</tspan><tspan class="cls-262" x="104.72" y="155">e</tspan><tspan class="cls-223" x="110.52" y="155">n</tspan><tspan class="cls-292" x="117.71" y="155">c</tspan><tspan class="cls-293" x="123.38" y="155">r</tspan><tspan x="128.5" y="155">e</tspan><tspan class="cls-271" x="0" y="190">P</tspan><tspan class="cls-294" x="7.12" y="190">a</tspan><tspan class="cls-295" x="13.14" y="190">r</tspan><tspan class="cls-239" x="18.59" y="190">u</tspan><tspan class="cls-286" x="25.54" y="190">t</tspan><tspan class="cls-269" x="30.08" y="190">i</tspan><tspan class="cls-296" x="33.57" y="190">o</tspan><tspan x="40.34" y="190">n : </tspan><tspan class="cls-297" x="57.25" y="190">1</tspan><tspan class="cls-298" x="63.12" y="190">9</tspan><tspan class="cls-299" x="69.64" y="190">-</tspan><tspan class="cls-300" x="75.16" y="190">0</tspan><tspan class="cls-301" x="81.27" y="190">1</tspan><tspan class="cls-302" x="87.15" y="190">-</tspan><tspan class="cls-228" x="91.54" y="190">2</tspan><tspan class="cls-300" x="98.25" y="190">0</tspan><tspan class="cls-303" x="104.36" y="190">1</tspan><tspan x="110.1" y="190">7</tspan></text><image width="210" height="307" transform="translate(132 78) scale(0.73)" xlink:href="../Desktop/mon dossier/ Web design/415K8EfM--L._SX210_.jpg"/><rect class="cls-304" x="901" y="106" width="88" height="88"/><text class="cls-3" transform="translate(920.97 599)">Prix</text><rect class="cls-305" x="1103" y="596" width="98" height="33"/><text class="cls-3" transform="translate(1114.1 620)">22,oo €</text></svg>