<svg id="Calque_2" data-name="Calque 2" xmlns="http://www.w3.org/2000/svg" viewBox="0 0 1280 768"><defs><style>.cls-1,.cls-8,.cls-9{fill:#a8a19b;}.cls-1{opacity:0.14;}.cls-2{font-size:24px;}.cls-10,.cls-11,.cls-2,.cls-5{font-family:CrimsonText-Regular, Crimson Text;}.cls-3{fill:none;stroke:#a8a19b;stroke-width:4px;}.cls-3,.cls-4{stroke-miterlimit:10;}.cls-4,.cls-6{opacity:0.75;}.cls-4{font-size:28.9px;fill:#1d1d1b;stroke:#9e8033;font-family:Satisfy-Regular, Satisfy;}.cls-5{font-size:36px;}.cls-6,.cls-7{fill:#bf9c4c;}.cls-7{opacity:0.57;}.cls-9{opacity:0.5;}.cls-10{font-size:21px;}.cls-11{font-size:18px;}</style></defs><title>Plan de travail 5</title><rect class="cls-1" width="1280" height="64.16"/><text class="cls-2" transform="translate(27.54 39.77)"><tspan xml:space="preserve">Tuile graphique       25/09/2017</tspan></text><text class="cls-2" transform="translate(825.54 39.77)">Nom de l’auteur : Philipe LECHARPENTIER</text><path class="cls-3" d="M180.83,134.12a23.81,23.81,0,0,0-2.11,10.21l-.89-2.55-1.58-4.55a152.66,152.66,0,0,0-38.68,24c-17.24,14.53-43.06,42.39-39,51.92,4.24,10,41.05-1.53,67.87-18.64,18.09-11.54,31.09-19.84,43.6-37.72,9.8-14,15.79-28.87,31.3-36.39,10.33-5,18.31-3.57,18.29-4.44-.07-2.1-46.14,4.85-60.13,7.1C194.13,123.88,185,125.51,180.83,134.12Z"/><path class="cls-3" d="M109.79,203.79c69.41-42.75,94.72-60.32,100.92-66.56a83.67,83.67,0,0,1,7.38-6.66,77.15,77.15,0,0,1,17.58-10.65"/><text class="cls-4" transform="translate(166.86 217.96) scale(0.79 1)"><tspan xml:space="preserve"> Sciences-Fiction</tspan></text><text class="cls-5" transform="translate(495.48 195.4)">Apropos de Siences-fiction</text><rect class="cls-6" x="142" y="293" width="88" height="88"/><rect class="cls-7" x="140" y="396" width="88" height="88"/><rect class="cls-8" x="140" y="499" width="88" height="88"/><rect class="cls-9" x="140" y="602" width="88" height="88"/><rect class="cls-9" x="417.25" y="305.59" width="542.28" height="178.41"/><text class="cls-10" transform="translate(449.95 350)">Siences Fiction </text><text class="cls-11" transform="translate(453 392.2)">Ce site publie des livres de sciences fiction à des prix <tspan x="0" y="27">raisonables, la possibilité de feuilleter les premières pages </tspan><tspan x="0" y="54">pour avoir une idée sur le livre avant de l’acheter.</tspan></text></svg>