<svg id="Calque_2" data-name="Calque 2" xmlns="http://www.w3.org/2000/svg" xmlns:xlink="http://www.w3.org/1999/xlink" viewBox="0 0 1280 768"><defs><style>.cls-1,.cls-6,.cls-8{fill:#a8a19b;}.cls-1{opacity:0.14;}.cls-2{font-size:24px;}.cls-187,.cls-188,.cls-2,.cls-39{font-family:CrimsonText-Regular, Crimson Text;}.cls-3{fill:none;stroke:#a8a19b;stroke-width:4px;}.cls-3,.cls-4{stroke-miterlimit:10;}.cls-4,.cls-5{opacity:0.75;}.cls-4{font-size:28.9px;fill:#1d1d1b;stroke:#9e8033;font-family:Satisfy-Regular, Satisfy;}.cls-5{fill:#bf9c4c;}.cls-187,.cls-7{font-size:18px;}.cls-7{font-family:CrimsonText-Bold, Crimson Text;}.cls-8{font-weight:700;}.cls-9{letter-spacing:-0.04em;}.cls-10{letter-spacing:-0.01em;}.cls-11{letter-spacing:0em;}.cls-12{letter-spacing:-0.02em;}.cls-13{letter-spacing:-0.02em;}.cls-14{letter-spacing:-0.03em;}.cls-15{letter-spacing:-0.03em;}.cls-16{letter-spacing:0em;}.cls-17{letter-spacing:-0.02em;}.cls-18{letter-spacing:-0.01em;}.cls-19{letter-spacing:-0.03em;}.cls-20{letter-spacing:0em;}.cls-21{letter-spacing:-0.02em;}.cls-22{letter-spacing:0.01em;}.cls-23{letter-spacing:0em;}.cls-24{letter-spacing:-0.03em;}.cls-25{letter-spacing:0em;}.cls-26{letter-spacing:-0.02em;}.cls-27{letter-spacing:-0.02em;}.cls-28{letter-spacing:0em;}.cls-29{letter-spacing:-0.02em;}.cls-30{letter-spacing:-0.01em;}.cls-31{letter-spacing:-0.03em;}.cls-32{letter-spacing:-0.01em;}.cls-33{letter-spacing:0em;}.cls-34{letter-spacing:-0.04em;}.cls-35{letter-spacing:0.02em;}.cls-36{letter-spacing:-0.01em;}.cls-37{letter-spacing:-0.02em;}.cls-38{letter-spacing:-0.01em;}.cls-40{letter-spacing:0.01em;}.cls-41{letter-spacing:0.01em;}.cls-42{letter-spacing:-0.01em;}.cls-43{letter-spacing:-0.01em;}.cls-44{letter-spacing:-0.02em;}.cls-45{letter-spacing:0em;}.cls-46{letter-spacing:0em;}.cls-47{letter-spacing:-0.03em;}.cls-48{letter-spacing:0.04em;}.cls-49{letter-spacing:0.02em;}.cls-50{letter-spacing:0.02em;}.cls-51{letter-spacing:-0.01em;}.cls-52{letter-spacing:0em;}.cls-53{letter-spacing:0.01em;}.cls-54{letter-spacing:0.01em;}.cls-55{letter-spacing:0.01em;}.cls-56{letter-spacing:-0.01em;}.cls-57{letter-spacing:0.02em;}.cls-58{letter-spacing:-0.01em;}.cls-59{letter-spacing:-0.01em;}.cls-60{letter-spacing:0.02em;}.cls-61{letter-spacing:0.01em;}.cls-62{letter-spacing:-0.01em;}.cls-63{letter-spacing:0.01em;}.cls-64{letter-spacing:0.02em;}.cls-65{letter-spacing:-0.01em;}.cls-66{letter-spacing:-0.01em;}.cls-67{letter-spacing:0.02em;}.cls-68{letter-spacing:0em;}.cls-69{letter-spacing:-0.01em;}.cls-70{letter-spacing:0.02em;}.cls-71{letter-spacing:0em;}.cls-72{letter-spacing:0.01em;}.cls-73{letter-spacing:-0.01em;}.cls-74{letter-spacing:0.02em;}.cls-75{letter-spacing:-0.01em;}.cls-76{letter-spacing:0em;}.cls-77{letter-spacing:0em;}.cls-78{letter-spacing:0em;}.cls-79{letter-spacing:0.02em;}.cls-80{letter-spacing:-0.02em;}.cls-81{letter-spacing:-0.01em;}.cls-82{letter-spacing:0em;}.cls-83{letter-spacing:-0.03em;}.cls-84{letter-spacing:0.04em;}.cls-85{letter-spacing:0.02em;}.cls-86{letter-spacing:-0.02em;}.cls-87{letter-spacing:-0.01em;}.cls-88{letter-spacing:0.01em;}.cls-89{letter-spacing:0em;}.cls-90{letter-spacing:-0.01em;}.cls-91{letter-spacing:-0.01em;}.cls-92{letter-spacing:-0.02em;}.cls-93{letter-spacing:-0.01em;}.cls-94{letter-spacing:0em;}.cls-95{letter-spacing:0.02em;}.cls-96{letter-spacing:-0.01em;}.cls-97{letter-spacing:0.02em;}.cls-98{letter-spacing:-0.01em;}.cls-99{letter-spacing:0.01em;}.cls-100{letter-spacing:0.01em;}.cls-101{letter-spacing:0.01em;}.cls-102{letter-spacing:-0.09em;}.cls-103{letter-spacing:-0.02em;}.cls-104{letter-spacing:-0.01em;}.cls-105{letter-spacing:0.02em;}.cls-106{letter-spacing:0.01em;}.cls-107{letter-spacing:0em;}.cls-108{letter-spacing:-0.01em;}.cls-109{letter-spacing:0em;}.cls-110{letter-spacing:0.01em;}.cls-111{letter-spacing:0em;}.cls-112{letter-spacing:-0.02em;}.cls-113{letter-spacing:0.01em;}.cls-114{letter-spacing:-0.03em;}.cls-115{letter-spacing:0.01em;}.cls-116{letter-spacing:-0.01em;}.cls-117{letter-spacing:-0.03em;}.cls-118{letter-spacing:-0.01em;}.cls-119{letter-spacing:0em;}.cls-120{letter-spacing:-0.01em;}.cls-121{letter-spacing:-0.01em;}.cls-122{letter-spacing:-0.02em;}.cls-123{letter-spacing:0em;}.cls-124{letter-spacing:0.01em;}.cls-125{letter-spacing:0em;}.cls-126{letter-spacing:-0.02em;}.cls-127{letter-spacing:0.02em;}.cls-128{letter-spacing:0.02em;}.cls-129{letter-spacing:-0.01em;}.cls-130{letter-spacing:0em;}.cls-131{letter-spacing:-0.04em;}.cls-132{letter-spacing:-0.05em;}.cls-133{letter-spacing:0.02em;}.cls-134{letter-spacing:0.01em;}.cls-135{letter-spacing:0.02em;}.cls-136{letter-spacing:-0.02em;}.cls-137{letter-spacing:0.02em;}.cls-138{letter-spacing:0em;}.cls-139{letter-spacing:0.02em;}.cls-140{letter-spacing:0.01em;}.cls-141{letter-spacing:-0.01em;}.cls-142{letter-spacing:-0.04em;}.cls-143{letter-spacing:0.01em;}.cls-144{letter-spacing:0.02em;}.cls-145{letter-spacing:-0.02em;}.cls-146{letter-spacing:-0.01em;}.cls-147{letter-spacing:0.01em;}.cls-148{letter-spacing:-0.01em;}.cls-149{letter-spacing:-0.01em;}.cls-150{letter-spacing:-0.01em;}.cls-151{letter-spacing:0.01em;}.cls-152{letter-spacing:0em;}.cls-153{letter-spacing:0.02em;}.cls-154{letter-spacing:-0.01em;}.cls-155{letter-spacing:0em;}.cls-156{letter-spacing:-0.04em;}.cls-157{letter-spacing:0.01em;}.cls-158{letter-spacing:0.01em;}.cls-159{letter-spacing:-0.01em;}.cls-160{letter-spacing:0.01em;}.cls-161{letter-spacing:-0.02em;}.cls-162{letter-spacing:0em;}.cls-163{letter-spacing:-0.02em;}.cls-164{letter-spacing:0.01em;}.cls-165{letter-spacing:0.01em;}.cls-166{letter-spacing:-0.02em;}.cls-167{letter-spacing:-0.02em;}.cls-168{letter-spacing:0.01em;}.cls-169{letter-spacing:0.01em;}.cls-170{letter-spacing:0em;}.cls-171{letter-spacing:-0.01em;}.cls-172{letter-spacing:-0.01em;}.cls-173{letter-spacing:0em;}.cls-174{letter-spacing:0.02em;}.cls-175{letter-spacing:0.01em;}.cls-176{letter-spacing:0em;}.cls-177{letter-spacing:-0.01em;}.cls-178{letter-spacing:0em;}.cls-179{letter-spacing:0em;}.cls-180{letter-spacing:-0.07em;}.cls-181{letter-spacing:-0.01em;}.cls-182{letter-spacing:-0.02em;}.cls-183{letter-spacing:0em;}.cls-184{letter-spacing:0.01em;}.cls-185{letter-spacing:0.01em;}.cls-186{letter-spacing:0em;}.cls-187{letter-spacing:0.06em;}.cls-188{font-size:21px;fill:#fff;}</style></defs><title>Plan de travail 1</title><rect class="cls-1" width="1280" height="64.16"/><text class="cls-2" transform="translate(27.54 39.77)"><tspan xml:space="preserve">Tuile graphique       25/09/2017</tspan></text><text class="cls-2" transform="translate(825.54 39.77)">Nom de l’auteur : Philipe LECHARPENTIER</text><path class="cls-3" d="M179.83,160.12a23.81,23.81,0,0,0-2.11,10.21l-.89-2.55-1.58-4.55a152.66,152.66,0,0,0-38.68,24c-17.24,14.53-43.06,42.39-39,51.92,4.24,10,41.05-1.53,67.87-18.64,18.09-11.54,31.09-19.84,43.6-37.72,9.8-14,15.79-28.87,31.3-36.39,10.33-5,18.31-3.57,18.29-4.44-.07-2.1-46.14,4.85-60.13,7.1C193.13,149.88,184,151.51,179.83,160.12Z"/><path class="cls-3" d="M108.79,229.79c69.41-42.75,94.72-60.32,100.92-66.56a83.67,83.67,0,0,1,7.38-6.66,77.15,77.15,0,0,1,17.58-10.65"/><text class="cls-4" transform="translate(165.86 243.96) scale(0.79 1)"><tspan xml:space="preserve"> Sciences-Fiction</tspan></text><rect class="cls-5" x="1056" y="105" width="156" height="157"/><rect class="cls-6" x="885" y="105" width="156" height="157"/><rect class="cls-6" x="1056" y="278" width="156" height="157"/><rect class="cls-5" x="885" y="279" width="156" height="157"/><text class="cls-7" transform="translate(119.5 324)"><tspan class="cls-8"><tspan class="cls-9">R</tspan><tspan class="cls-10" x="11.71" y="0">e</tspan><tspan class="cls-11" x="19.56" y="0">t</tspan><tspan class="cls-12" x="26.1" y="0">r</tspan><tspan class="cls-13" x="33.96" y="0">o</tspan><tspan class="cls-14" x="42.79" y="0">u</tspan><tspan class="cls-15" x="52.87" y="0">v</tspan><tspan class="cls-16" x="62.73" y="0">e</tspan><tspan x="70.8" y="0">z </tspan><tspan class="cls-17" x="82.04" y="0">i</tspan><tspan class="cls-18" x="87.4" y="0">c</tspan><tspan x="95.35" y="0">i </tspan><tspan class="cls-19" x="104.75" y="0">t</tspan><tspan class="cls-13" x="110.86" y="0">o</tspan><tspan class="cls-20" x="119.69" y="0">u</tspan><tspan x="130.17" y="0">s </tspan><tspan class="cls-21" x="140.59" y="0">l</tspan><tspan class="cls-22" x="146.03" y="0">e</tspan><tspan x="154.3" y="0">s </tspan><tspan class="cls-23" x="164.72" y="0">l</tspan><tspan class="cls-24" x="170.54" y="0">i</tspan><tspan class="cls-25" x="175.76" y="0">v</tspan><tspan class="cls-26" x="186.18" y="0">r</tspan><tspan class="cls-22" x="194.07" y="0">e</tspan><tspan x="202.34" y="0">s </tspan><tspan class="cls-27" x="212.76" y="0">d</tspan><tspan x="222.15" y="0">e </tspan><tspan class="cls-28" x="233.95" y="0">s</tspan><tspan class="cls-18" x="240.72" y="0">c</tspan><tspan class="cls-29" x="248.66" y="0">i</tspan><tspan class="cls-30" x="254.09" y="0">e</tspan><tspan class="cls-31" x="262" y="0">n</tspan><tspan class="cls-32" x="272.42" y="0">c</tspan><tspan class="cls-33" x="280.35" y="0">e</tspan><tspan class="cls-34" x="288.5" y="0">-</tspan><tspan class="cls-35" x="293.45" y="0">f</tspan><tspan class="cls-13" x="300.5" y="0">i</tspan><tspan class="cls-36" x="305.86" y="0">c</tspan><tspan class="cls-11" x="313.85" y="0">t</tspan><tspan class="cls-17" x="320.4" y="0">i</tspan><tspan class="cls-37" x="325.76" y="0">o</tspan><tspan class="cls-38" x="334.64" y="0">n</tspan><tspan x="345.48" y="0">.</tspan></tspan><tspan class="cls-39"><tspan class="cls-40" x="0" y="41">L</tspan><tspan x="10.1" y="41">a s</tspan><tspan class="cls-41" x="27.88" y="41">c</tspan><tspan class="cls-42" x="35.16" y="41">i</tspan><tspan class="cls-43" x="39.68" y="41">e</tspan><tspan class="cls-44" x="47.12" y="41">n</tspan><tspan class="cls-45" x="56.34" y="41">c</tspan><tspan class="cls-46" x="63.44" y="41">e</tspan><tspan class="cls-47" x="70.96" y="41">-</tspan><tspan class="cls-48" x="77.09" y="41">f</tspan><tspan class="cls-42" x="83.03" y="41">i</tspan><tspan class="cls-49" x="87.55" y="41">c</tspan><tspan class="cls-50" x="94.97" y="41">t</tspan><tspan class="cls-51" x="100.78" y="41">i</tspan><tspan class="cls-26" x="105.25" y="41">o</tspan><tspan x="113.93" y="41">n </tspan><tspan class="cls-52" x="127.5" y="41">e</tspan><tspan class="cls-45" x="135.11" y="41">s</tspan><tspan x="141.4" y="41">t </tspan><tspan class="cls-53" x="150.95" y="41">u</tspan><tspan x="160.3" y="41">n </tspan><tspan class="cls-26" x="173.88" y="41">g</tspan><tspan class="cls-43" x="181.92" y="41">e</tspan><tspan class="cls-54" x="189.36" y="41">n</tspan><tspan class="cls-43" x="199.05" y="41">r</tspan><tspan x="205.61" y="41">e </tspan><tspan class="cls-55" x="217.19" y="41">l</tspan><tspan class="cls-56" x="221.83" y="41">i</tspan><tspan class="cls-57" x="226.32" y="41">t</tspan><tspan class="cls-58" x="232.2" y="41">t</tspan><tspan class="cls-59" x="237.52" y="41">é</tspan><tspan class="cls-33" x="244.92" y="41">r</tspan><tspan class="cls-60" x="251.62" y="41">a</tspan><tspan class="cls-61" x="259.35" y="41">i</tspan><tspan class="cls-62" x="264.29" y="41">r</tspan><tspan x="270.85" y="41">e </tspan><tspan class="cls-63" x="282.43" y="41">c</tspan><tspan class="cls-64" x="289.7" y="41">a</tspan><tspan class="cls-33" x="297.42" y="41">r</tspan><tspan class="cls-65" x="304.12" y="41">a</tspan><tspan class="cls-49" x="311.41" y="41">c</tspan><tspan class="cls-58" x="318.83" y="41">t</tspan><tspan class="cls-66" x="324.15" y="41">é</tspan><tspan class="cls-67" x="331.55" y="41">r</tspan><tspan class="cls-68" x="338.5" y="41">i</tspan><tspan x="343.29" y="41">sé </tspan><tspan class="cls-69" x="361.18" y="41">p</tspan><tspan class="cls-70" x="370.03" y="41">a</tspan><tspan x="377.75" y="41">r </tspan><tspan class="cls-53" x="388.46" y="41">u</tspan><tspan class="cls-44" x="397.81" y="41">n</tspan><tspan x="407.04" y="41">e </tspan><tspan class="cls-71" x="418.62" y="41">n</tspan><tspan class="cls-70" x="428.15" y="41">a</tspan><tspan class="cls-72" x="435.87" y="41">r</tspan><tspan class="cls-33" x="442.82" y="41">r</tspan><tspan class="cls-73" x="449.52" y="41">a</tspan><tspan class="cls-74" x="456.78" y="41">t</tspan><tspan class="cls-51" x="462.59" y="41">i</tspan><tspan class="cls-26" x="467.06" y="41">o</tspan><tspan x="475.74" y="41">n </tspan><tspan class="cls-37" x="0" y="82">p</tspan><tspan class="cls-66" x="8.66" y="82">r</tspan><tspan class="cls-75" x="15.18" y="82">o</tspan><tspan class="cls-76" x="23.92" y="82">p</tspan><tspan class="cls-77" x="32.87" y="82">o</tspan><tspan class="cls-78" x="41.76" y="82">s</tspan><tspan class="cls-79" x="48.1" y="82">a</tspan><tspan class="cls-80" x="55.86" y="82">n</tspan><tspan x="65.02" y="82">t </tspan><tspan class="cls-81" x="74.57" y="82">d</tspan><tspan class="cls-82" x="83.19" y="82">e</tspan><tspan x="90.8" y="82">s </tspan><tspan class="cls-83" x="101.13" y="82">h</tspan><tspan class="cls-84" x="109.99" y="82">y</tspan><tspan class="cls-76" x="118.63" y="82">p</tspan><tspan class="cls-75" x="127.58" y="82">o</tspan><tspan class="cls-85" x="136.31" y="82">t</tspan><tspan class="cls-86" x="142.24" y="82">h</tspan><tspan class="cls-82" x="151.25" y="82">è</tspan><tspan x="158.86" y="82">s</tspan><tspan class="cls-52" x="165.17" y="82">e</tspan><tspan x="172.78" y="82">s </tspan><tspan class="cls-87" x="183.11" y="82">s</tspan><tspan class="cls-88" x="189.3" y="82">u</tspan><tspan x="198.62" y="82">r </tspan><tspan class="cls-89" x="209.32" y="82">c</tspan><tspan x="216.42" y="82">e </tspan><tspan class="cls-90" x="228.01" y="82">q</tspan><tspan class="cls-91" x="236.5" y="82">u</tspan><tspan x="245.46" y="82">e </tspan><tspan class="cls-76" x="257.04" y="82">p</tspan><tspan class="cls-92" x="265.99" y="82">o</tspan><tspan class="cls-88" x="274.56" y="82">u</tspan><tspan class="cls-72" x="283.88" y="82">r</tspan><tspan class="cls-33" x="290.83" y="82">r</tspan><tspan class="cls-60" x="297.53" y="82">a</tspan><tspan class="cls-93" x="305.27" y="82">i</tspan><tspan x="309.76" y="82">t </tspan><tspan class="cls-94" x="319.3" y="82">ê</tspan><tspan class="cls-95" x="326.89" y="82">t</tspan><tspan class="cls-62" x="332.69" y="82">r</tspan><tspan x="339.24" y="82">e </tspan><tspan class="cls-96" x="350.83" y="82">l</tspan><tspan x="355.05" y="82">e </tspan><tspan class="cls-97" x="366.63" y="82">f</tspan><tspan class="cls-98" x="372.25" y="82">u</tspan><tspan class="cls-99" x="381.17" y="82">t</tspan><tspan class="cls-100" x="386.94" y="82">u</tspan><tspan x="396.27" y="82">r </tspan><tspan class="cls-94" x="406.97" y="82">e</tspan><tspan class="cls-101" x="414.55" y="82">t</tspan><tspan class="cls-102" x="420.32" y="82">/</tspan><tspan class="cls-103" x="426.23" y="82">o</tspan><tspan x="434.8" y="82">u </tspan><tspan class="cls-104" x="447.92" y="82">l</tspan><tspan class="cls-82" x="452.13" y="82">e</tspan><tspan x="459.74" y="82">s </tspan><tspan class="cls-105" x="470.08" y="82">u</tspan><tspan class="cls-106" x="479.44" y="82">n</tspan><tspan class="cls-107" x="489.14" y="82">i</tspan><tspan class="cls-108" x="493.79" y="82">v</tspan><tspan class="cls-66" x="502.28" y="82">e</tspan><tspan class="cls-109" x="509.68" y="82">r</tspan><tspan x="516.43" y="82">s</tspan><tspan class="cls-110" x="0" y="123">i</tspan><tspan class="cls-44" x="4.97" y="123">n</tspan><tspan class="cls-111" x="14.2" y="123">c</tspan><tspan class="cls-112" x="21.27" y="123">o</tspan><tspan class="cls-113" x="29.95" y="123">n</tspan><tspan class="cls-114" x="39.68" y="123">n</tspan><tspan class="cls-115" x="48.61" y="123">u</tspan><tspan class="cls-116" x="57.81" y="123">s</tspan><tspan class="cls-117" x="63.96" y="123">(</tspan><tspan class="cls-118" x="69.14" y="123">p</tspan><tspan class="cls-119" x="77.86" y="123">l</tspan><tspan class="cls-79" x="82.33" y="123">a</tspan><tspan class="cls-44" x="90.09" y="123">n</tspan><tspan class="cls-94" x="99.31" y="123">è</tspan><tspan class="cls-58" x="106.89" y="123">t</tspan><tspan class="cls-52" x="112.21" y="123">e</tspan><tspan x="119.82" y="123">s </tspan><tspan class="cls-120" x="130.16" y="123">é</tspan><tspan class="cls-121" x="137.62" y="123">l</tspan><tspan class="cls-122" x="141.79" y="123">o</tspan><tspan class="cls-123" x="150.44" y="123">i</tspan><tspan class="cls-124" x="155.14" y="123">g</tspan><tspan class="cls-44" x="163.6" y="123">n</tspan><tspan class="cls-125" x="172.82" y="123">é</tspan><tspan class="cls-52" x="180.46" y="123">e</tspan><tspan class="cls-18" x="188.07" y="123">s</tspan><tspan x="194.2" y="123">, </tspan><tspan class="cls-126" x="202.43" y="123">m</tspan><tspan class="cls-112" x="216.16" y="123">o</tspan><tspan class="cls-126" x="224.84" y="123">n</tspan><tspan class="cls-81" x="234.05" y="123">d</tspan><tspan class="cls-82" x="242.68" y="123">e</tspan><tspan x="250.29" y="123">s </tspan><tspan class="cls-69" x="260.62" y="123">p</tspan><tspan class="cls-70" x="269.47" y="123">a</tspan><tspan class="cls-33" x="277.19" y="123">r</tspan><tspan class="cls-127" x="283.89" y="123">a</tspan><tspan class="cls-128" x="291.77" y="123">l</tspan><tspan class="cls-96" x="296.56" y="123">l</tspan><tspan class="cls-120" x="300.78" y="123">è</tspan><tspan class="cls-96" x="308.24" y="123">l</tspan><tspan class="cls-82" x="312.46" y="123">e</tspan><tspan class="cls-129" x="320.07" y="123">s</tspan><tspan x="326.21" y="123">, </tspan><tspan class="cls-94" x="334.43" y="123">e</tspan><tspan class="cls-58" x="342.02" y="123">t</tspan><tspan class="cls-130" x="347.33" y="123">c</tspan><tspan class="cls-131" x="354.52" y="123">.</tspan><tspan class="cls-132" x="357.91" y="123">)</tspan><tspan x="362.62" y="123">, </tspan><tspan class="cls-43" x="370.85" y="123">e</tspan><tspan x="378.29" y="123">n </tspan><tspan class="cls-69" x="391.86" y="123">p</tspan><tspan class="cls-70" x="400.71" y="123">a</tspan><tspan class="cls-133" x="408.43" y="123">r</tspan><tspan class="cls-134" x="415.52" y="123">t</tspan><tspan class="cls-135" x="421.24" y="123">a</tspan><tspan class="cls-136" x="429" y="123">n</tspan><tspan x="438.16" y="123">t</tspan><tspan class="cls-81" x="0" y="164">d</tspan><tspan class="cls-82" x="8.62" y="164">e</tspan><tspan x="16.23" y="164">s </tspan><tspan class="cls-111" x="26.57" y="164">c</tspan><tspan class="cls-112" x="33.64" y="164">o</tspan><tspan class="cls-113" x="42.32" y="164">n</tspan><tspan class="cls-71" x="52.05" y="164">n</tspan><tspan class="cls-137" x="61.58" y="164">a</tspan><tspan class="cls-68" x="69.31" y="164">is</tspan><tspan class="cls-138" x="80.45" y="164">s</tspan><tspan class="cls-79" x="86.79" y="164">a</tspan><tspan class="cls-44" x="94.55" y="164">n</tspan><tspan class="cls-89" x="103.77" y="164">c</tspan><tspan class="cls-82" x="110.87" y="164">e</tspan><tspan x="118.48" y="164">s </tspan><tspan class="cls-65" x="128.82" y="164">a</tspan><tspan class="cls-139" x="136.1" y="164">c</tspan><tspan class="cls-140" x="143.52" y="164">t</tspan><tspan class="cls-141" x="149.29" y="164">u</tspan><tspan class="cls-120" x="158.26" y="164">e</tspan><tspan class="cls-128" x="165.72" y="164">l</tspan><tspan class="cls-96" x="170.51" y="164">l</tspan><tspan class="cls-52" x="174.73" y="164">e</tspan><tspan x="182.34" y="164">s </tspan><tspan class="cls-142" x="192.67" y="164">(</tspan><tspan x="197.56" y="164">s</tspan><tspan class="cls-143" x="203.87" y="164">c</tspan><tspan class="cls-42" x="211.15" y="164">i</tspan><tspan class="cls-43" x="215.67" y="164">e</tspan><tspan class="cls-80" x="223.11" y="164">n</tspan><tspan class="cls-50" x="232.27" y="164">t</tspan><tspan class="cls-144" x="238.08" y="164">i</tspan><tspan class="cls-48" x="243.08" y="164">f</tspan><tspan class="cls-145" x="249.02" y="164">i</tspan><tspan class="cls-146" x="253.48" y="164">q</tspan><tspan class="cls-91" x="261.96" y="164">u</tspan><tspan class="cls-82" x="270.92" y="164">e</tspan><tspan class="cls-129" x="278.53" y="164">s</tspan><tspan x="284.67" y="164">, </tspan><tspan class="cls-58" x="292.89" y="164">t</tspan><tspan class="cls-125" x="298.21" y="164">ec</tspan><tspan class="cls-147" x="313.05" y="164">h</tspan><tspan class="cls-44" x="322.56" y="164">n</tspan><tspan class="cls-148" x="331.79" y="164">o</tspan><tspan class="cls-149" x="340.49" y="164">l</tspan><tspan class="cls-150" x="344.65" y="164">o</tspan><tspan class="cls-151" x="353.48" y="164">g</tspan><tspan class="cls-145" x="361.91" y="164">i</tspan><tspan class="cls-90" x="366.37" y="164">q</tspan><tspan class="cls-91" x="374.85" y="164">u</tspan><tspan class="cls-52" x="383.81" y="164">e</tspan><tspan class="cls-18" x="391.42" y="164">s</tspan><tspan x="397.56" y="164">, </tspan><tspan class="cls-152" x="405.79" y="164">e</tspan><tspan class="cls-153" x="413.37" y="164">t</tspan><tspan class="cls-147" x="419.3" y="164">h</tspan><tspan class="cls-44" x="428.81" y="164">n</tspan><tspan class="cls-148" x="438.04" y="164">o</tspan><tspan class="cls-149" x="446.73" y="164">l</tspan><tspan class="cls-150" x="450.9" y="164">o</tspan><tspan class="cls-151" x="459.73" y="164">g</tspan><tspan class="cls-145" x="468.16" y="164">i</tspan><tspan class="cls-90" x="472.62" y="164">q</tspan><tspan class="cls-91" x="481.1" y="164">u</tspan><tspan class="cls-52" x="490.06" y="164">e</tspan><tspan class="cls-18" x="497.67" y="164">s</tspan><tspan x="503.81" y="164">, </tspan><tspan class="cls-94" x="512.03" y="164">e</tspan><tspan class="cls-154" x="519.62" y="164">t</tspan><tspan class="cls-155" x="524.93" y="164">c</tspan><tspan class="cls-131" x="532.12" y="164">.</tspan><tspan class="cls-156" x="535.51" y="164">)</tspan><tspan x="540.45" y="164">.</tspan><tspan class="cls-157" x="0" y="205">I</tspan><tspan x="5.82" y="205">l se </tspan><tspan class="cls-158" x="32.15" y="205">d</tspan><tspan class="cls-68" x="41.14" y="205">i</tspan><tspan class="cls-45" x="45.93" y="205">s</tspan><tspan class="cls-74" x="52.22" y="205">t</tspan><tspan class="cls-110" x="58.03" y="205">i</tspan><tspan class="cls-159" x="63" y="205">n</tspan><tspan class="cls-160" x="72.45" y="205">g</tspan><tspan class="cls-91" x="80.91" y="205">u</tspan><tspan x="89.87" y="205">e </tspan><tspan class="cls-161" x="101.45" y="205">d</tspan><tspan x="109.89" y="205">u </tspan><tspan class="cls-162" x="123" y="205">f</tspan><tspan class="cls-79" x="128.23" y="205">a</tspan><tspan class="cls-136" x="135.98" y="205">n</tspan><tspan class="cls-147" x="145.15" y="205">ta</tspan><tspan class="cls-89" x="158.5" y="205">s</tspan><tspan class="cls-50" x="164.79" y="205">t</tspan><tspan class="cls-145" x="170.6" y="205">i</tspan><tspan class="cls-146" x="175.06" y="205">q</tspan><tspan class="cls-91" x="183.55" y="205">u</tspan><tspan class="cls-163" x="192.51" y="205">e</tspan><tspan x="199.66" y="205">, </tspan><tspan class="cls-26" x="207.89" y="205">g</tspan><tspan class="cls-43" x="215.94" y="205">e</tspan><tspan class="cls-54" x="223.38" y="205">n</tspan><tspan class="cls-43" x="233.07" y="205">r</tspan><tspan x="239.63" y="205">e </tspan><tspan class="cls-146" x="251.21" y="205">q</tspan><tspan class="cls-164" x="259.69" y="205">u</tspan><tspan x="269.03" y="205">i </tspan><tspan class="cls-110" x="277.78" y="205">i</tspan><tspan class="cls-44" x="282.75" y="205">n</tspan><tspan class="cls-165" x="291.98" y="205">c</tspan><tspan class="cls-166" x="299.2" y="205">l</tspan><tspan class="cls-98" x="303.23" y="205">u</tspan><tspan x="312.14" y="205">t </tspan><tspan class="cls-53" x="321.69" y="205">u</tspan><tspan class="cls-167" x="331.05" y="205">n</tspan><tspan x="340.27" y="205">e </tspan><tspan class="cls-168" x="351.85" y="205">d</tspan><tspan class="cls-169" x="360.85" y="205">i</tspan><tspan class="cls-126" x="365.84" y="205">m</tspan><tspan class="cls-43" x="379.57" y="205">e</tspan><tspan class="cls-170" x="387" y="205">n</tspan><tspan class="cls-171" x="396.53" y="205">s</tspan><tspan class="cls-172" x="402.69" y="205">i</tspan><tspan class="cls-26" x="407.16" y="205">o</tspan><tspan x="415.84" y="205">n </tspan><tspan class="cls-110" x="429.41" y="205">i</tspan><tspan class="cls-44" x="434.38" y="205">n</tspan><tspan class="cls-173" x="443.61" y="205">e</tspan><tspan class="cls-174" x="451.15" y="205">x</tspan><tspan class="cls-148" x="459.78" y="205">p</tspan><tspan class="cls-55" x="468.5" y="205">l</tspan><tspan class="cls-42" x="473.13" y="205">i</tspan><tspan class="cls-175" x="477.65" y="205">c</tspan><tspan class="cls-176" x="484.92" y="205">a</tspan><tspan class="cls-177" x="492.32" y="205">b</tspan><tspan class="cls-96" x="500.83" y="205">l</tspan><tspan class="cls-163" x="505.05" y="205">e</tspan><tspan x="512.21" y="205">, </tspan><tspan class="cls-94" x="0" y="246">e</tspan><tspan x="7.58" y="246">t </tspan><tspan class="cls-81" x="17.13" y="246">d</tspan><tspan x="25.75" y="246">e </tspan><tspan class="cls-119" x="37.33" y="246">l</tspan><tspan x="41.8" y="246">a </tspan><tspan class="cls-178" x="53.26" y="246">f</tspan><tspan class="cls-79" x="58.49" y="246">a</tspan><tspan class="cls-80" x="66.25" y="246">n</tspan><tspan class="cls-147" x="75.41" y="246">ta</tspan><tspan class="cls-179" x="88.76" y="246">s</tspan><tspan class="cls-180" x="95.17" y="246">y</tspan><tspan x="101.97" y="246">, </tspan><tspan class="cls-146" x="110.19" y="246">q</tspan><tspan class="cls-164" x="118.68" y="246">u</tspan><tspan x="128.01" y="246">i </tspan><tspan class="cls-69" x="136.76" y="246">p</tspan><tspan class="cls-70" x="145.61" y="246">a</tspan><tspan class="cls-181" x="153.33" y="246">r</tspan><tspan class="cls-96" x="159.81" y="246">l</tspan><tspan x="164.03" y="246">e </tspan><tspan class="cls-81" x="175.61" y="246">d</tspan><tspan x="184.23" y="246">e </tspan><tspan class="cls-126" x="195.81" y="246">m</tspan><tspan class="cls-26" x="209.55" y="246">o</tspan><tspan class="cls-182" x="218.23" y="246">n</tspan><tspan class="cls-81" x="227.44" y="246">d</tspan><tspan class="cls-82" x="236.06" y="246">e</tspan><tspan x="243.67" y="246">s </tspan><tspan class="cls-183" x="254.01" y="246">m</tspan><tspan class="cls-184" x="268.04" y="246">a</tspan><tspan class="cls-185" x="275.59" y="246">g</tspan><tspan class="cls-145" x="284.02" y="246">i</tspan><tspan class="cls-146" x="288.48" y="246">q</tspan><tspan class="cls-91" x="296.96" y="246">u</tspan><tspan class="cls-82" x="305.92" y="246">e</tspan><tspan class="cls-186" x="313.53" y="246">s</tspan></tspan></text><text class="cls-187" transform="translate(439.29 570) scale(1 1.25)">.</text><text class="cls-188" transform="translate(938 531)">Cliquez ici pour commencer</text><image width="512" height="512" transform="translate(1165 611) scale(0.09)" xlink:href="../Desktop/mon dossier/ Web design/logo-facebook.png"/><image width="192" height="192" transform="translate(1094 608) scale(0.28)" xlink:href="../Desktop/mon dossier/ Web design/apple-touch-icon-192x192.png"/><text class="cls-188" transform="translate(934.37 509.23)">Cliquez ici pour commencer</text></svg>